<?xml version="1.0" encoding="UTF-8" standalone="no"?><svg xmlns="http://www.w3.org/2000/svg" xmlns:xlink="http://www.w3.org/1999/xlink" height="131" version="1.1" width="675"><defs/><g><g transform="translate(-22,-142) scale(1,1)"><rect fill="#C0C0C0" height="103" opacity="0.2" stroke="none" width="106.4326171875" x="39" y="167"/></g><g transform="translate(-22,-142) scale(1,1)"><rect fill="#ffffff" height="103" stroke="none" width="106.4326171875" x="32" y="160"/></g><g transform="translate(-22,-142) scale(1,1)"><path d="M 32 160 L 138.4326171875 160 L 138.4326171875 263 L 32 263 L 32 160 Z Z" fill="none" stroke="#000000" stroke-miterlimit="10"/></g><g transform="translate(-22,-142) scale(1,1)"><g><path fill="none" stroke="none"/><text fill="#000000" font-family="Arial" font-size="13px" font-style="normal" font-weight="normal" stroke="none" text-decoration="none" x="85.21630859375" y="177.5"/></g></g><g transform="translate(-22,-142) scale(1,1)"><g><path fill="none" stroke="none"/><text fill="#000000" font-family="Arial" font-size="13px" font-style="normal" font-weight="normal" stroke="none" text-decoration="none" x="85.21630859375" y="177.5"/></g></g><g transform="translate(-22,-142) scale(1,1)"><g><path fill="none" stroke="none"/><text fill="#000000" font-family="Arial" font-size="13px" font-style="normal" font-weight="normal" stroke="none" text-decoration="none" x="85.21630859375" y="177.5"/></g></g><g transform="translate(-22,-142) scale(1,1)"><g><path fill="none" stroke="none"/><text fill="#000000" font-family="Arial" font-size="13px" font-style="normal" font-weight="normal" stroke="none" text-decoration="none" x="85.21630859375" y="177.5"/></g></g><g transform="translate(-22,-142) scale(1,1)"><g><path fill="none" stroke="none"/><text fill="#000000" font-family="Arial" font-size="13px" font-style="normal" font-weight="normal" stroke="none" text-decoration="none" x="67.884033203125" y="182.5">Driver</text></g></g><g transform="translate(-22,-142) scale(1,1)"><g><path fill="none" stroke="none"/><text fill="#000000" font-family="Arial" font-size="13px" font-style="normal" font-weight="normal" stroke="none" text-decoration="none" x="-0.5" y="12.5"/></g></g><g transform="translate(-22,-142) scale(1,1)"><path d="M 321 159 L 388 159 Q 398 159 398 169 L 398 252 Q 398 262 388 262 L 321 262 Q 311 262 311 252 L 311 169 Q 311 159 321 159 Z" fill="#C0C0C0" opacity="0.2" stroke="none"/></g><g transform="translate(-22,-142) scale(1,1)"><path d="M 314 152 L 381 152 Q 391 152 391 162 L 391 245 Q 391 255 381 255 L 314 255 Q 304 255 304 245 L 304 162 Q 304 152 314 152 Z" fill="#ffffff" stroke="none"/></g><g transform="translate(-22,-142) scale(1,1)"><path d="M 314 152 L 381 152 Q 391 152 391 162 L 391 245 Q 391 255 381 255 L 314 255 Q 304 255 304 245 L 304 162 Q 304 152 314 152 Z" fill="none" stroke="#000000" stroke-miterlimit="10"/></g><g transform="translate(-22,-142) scale(1,1)"><path d="M 304 175 L 391 175" fill="none" stroke="#000000" stroke-miterlimit="10"/></g><g transform="translate(-22,-142) scale(1,1)"><g><path fill="none" stroke="none"/><text fill="#000000" font-family="Arial" font-size="13px" font-style="normal" font-weight="normal" stroke="none" text-decoration="none" x="325.819580078125" y="196.5">Fatigue</text><text fill="#000000" font-family="Arial" font-size="13px" font-style="normal" font-weight="normal" stroke="none" text-decoration="none" x="329.075927734375" y="209.5">Check</text></g></g><g transform="translate(-22,-142) scale(1,1)"><g><path fill="none" stroke="none"/><text fill="#000000" font-family="Arial" font-size="13px" font-style="normal" font-weight="normal" stroke="none" text-decoration="none" x="347.5" y="169.5"/></g></g><g transform="translate(-22,-142) scale(1,1)"><path d="M 138 209 L 304 209" fill="none" stroke="#000000" stroke-miterlimit="10"/></g><g transform="translate(-22,-142) scale(1,1)"><path d="M 293.83732514237585 213.209517756016 L 304 209 L 293.83732514237585 204.790482243984" fill="#000000" stroke="none"/></g><g transform="translate(-22,-142) scale(1,1)"><path d="M 293.83732514237585 213.209517756016 L 304 209 L 293.83732514237585 204.790482243984 L 293.83732514237585 213.209517756016" fill="none" stroke="#000000" stroke-miterlimit="10"/></g><g transform="translate(-22,-142) scale(1,1)"><g><path fill="none" stroke="none"/><text fill="#000000" font-family="Arial" font-size="13px" font-style="normal" font-weight="normal" stroke="none" text-decoration="none" x="167.5" y="200.5">Cam/Vision Check</text></g></g><g transform="translate(-22,-142) scale(1,1)"><path d="M 601 175 L 684 175 Q 694 175 694 185 L 694 236 Q 694 246 684 246 L 601 246 Q 591 246 591 236 L 591 185 Q 591 175 601 175 Z" fill="#C0C0C0" opacity="0.2" stroke="none"/></g><g transform="translate(-22,-142) scale(1,1)"><path d="M 594 168 L 677 168 Q 687 168 687 178 L 687 229 Q 687 239 677 239 L 594 239 Q 584 239 584 229 L 584 178 Q 584 168 594 168 Z" fill="#ffffff" stroke="none"/></g><g transform="translate(-22,-142) scale(1,1)"><path d="M 594 168 L 677 168 Q 687 168 687 178 L 687 229 Q 687 239 677 239 L 594 239 Q 584 239 584 229 L 584 178 Q 584 168 594 168 Z" fill="none" stroke="#000000" stroke-miterlimit="10"/></g><g transform="translate(-22,-142) scale(1,1)"><path d="M 584 191 L 687 191" fill="none" stroke="#000000" stroke-miterlimit="10"/></g><g transform="translate(-22,-142) scale(1,1)"><g><path fill="none" stroke="none"/><text fill="#000000" font-family="Arial" font-size="13px" font-style="normal" font-weight="normal" stroke="none" text-decoration="none" x="622.135009765625" y="212.5">Alert</text></g></g><g transform="translate(-22,-142) scale(1,1)"><g><path fill="none" stroke="none"/><text fill="#000000" font-family="Arial" font-size="13px" font-style="normal" font-weight="normal" stroke="none" text-decoration="none" x="635.5" y="185.5"/></g></g><g transform="translate(-22,-142) scale(1,1)"><path d="M 391 201 L 584 201" fill="none" stroke="#000000" stroke-miterlimit="10"/></g><g transform="translate(-22,-142) scale(1,1)"><path d="M 573.8373251423759 205.209517756016 L 584 201 L 573.8373251423758 196.790482243984" fill="#000000" stroke="none"/></g><g transform="translate(-22,-142) scale(1,1)"><path d="M 573.8373251423759 205.209517756016 L 584 201 L 573.8373251423758 196.790482243984 L 573.8373251423759 205.209517756016" fill="none" stroke="#000000" stroke-miterlimit="10"/></g><g transform="translate(-22,-142) scale(1,1)"><g><path fill="none" stroke="none"/><text fill="#000000" font-family="Arial" font-size="13px" font-style="normal" font-weight="normal" stroke="none" text-decoration="none" x="424.5" y="192.5">If found Sleepy/Drunk</text></g></g></g></svg>