<?xml version="1.0" encoding="UTF-8" standalone="no"?><svg xmlns="http://www.w3.org/2000/svg" xmlns:xlink="http://www.w3.org/1999/xlink" height="379" version="1.1" width="621.18994140625"><defs/><g><g transform="translate(-70,-134) scale(1,1)"><rect fill="#C0C0C0" height="87" opacity="0.2" stroke="none" width="106.4326171875" x="87" y="199"/></g><g transform="translate(-70,-134) scale(1,1)"><rect fill="#ffffff" height="87" stroke="none" width="106.4326171875" x="80" y="192"/></g><g transform="translate(-70,-134) scale(1,1)"><path d="M 80 192 L 186.4326171875 192 L 186.4326171875 279 L 80 279 L 80 192 Z Z" fill="none" stroke="#000000" stroke-miterlimit="10"/></g><g transform="translate(-70,-134) scale(1,1)"><g><path fill="none" stroke="none"/><text fill="#000000" font-family="Arial" font-size="13px" font-style="normal" font-weight="normal" stroke="none" text-decoration="none" x="133.21630859375" y="209.5"/></g></g><g transform="translate(-70,-134) scale(1,1)"><g><path fill="none" stroke="none"/><text fill="#000000" font-family="Arial" font-size="13px" font-style="normal" font-weight="normal" stroke="none" text-decoration="none" x="133.21630859375" y="209.5"/></g></g><g transform="translate(-70,-134) scale(1,1)"><g><path fill="none" stroke="none"/><text fill="#000000" font-family="Arial" font-size="13px" font-style="normal" font-weight="normal" stroke="none" text-decoration="none" x="133.21630859375" y="209.5"/></g></g><g transform="translate(-70,-134) scale(1,1)"><g><path fill="none" stroke="none"/><text fill="#000000" font-family="Arial" font-size="13px" font-style="normal" font-weight="normal" stroke="none" text-decoration="none" x="133.21630859375" y="209.5"/></g></g><g transform="translate(-70,-134) scale(1,1)"><g><path fill="none" stroke="none"/><text fill="#000000" font-family="Arial" font-size="13px" font-style="normal" font-weight="normal" stroke="none" text-decoration="none" x="114.078125" y="214.5">Driver </text></g></g><g transform="translate(-70,-134) scale(1,1)"><g><path fill="none" stroke="none"/><text fill="#000000" font-family="Arial" font-size="13px" font-style="normal" font-weight="normal" stroke="none" text-decoration="none" x="-0.5" y="12.5"/></g></g><g transform="translate(-70,-134) scale(1,1)"><rect fill="#C0C0C0" height="79" opacity="0.2" stroke="none" width="106.4326171875" x="263" y="199"/></g><g transform="translate(-70,-134) scale(1,1)"><rect fill="#ffffff" height="79" stroke="none" width="106.4326171875" x="256" y="192"/></g><g transform="translate(-70,-134) scale(1,1)"><path d="M 256 192 L 362.4326171875 192 L 362.4326171875 271 L 256 271 L 256 192 Z Z" fill="none" stroke="#000000" stroke-miterlimit="10"/></g><g transform="translate(-70,-134) scale(1,1)"><g><path fill="none" stroke="none"/><text fill="#000000" font-family="Arial" font-size="13px" font-style="normal" font-weight="normal" stroke="none" text-decoration="none" x="309.21630859375" y="209.5"/></g></g><g transform="translate(-70,-134) scale(1,1)"><g><path fill="none" stroke="none"/><text fill="#000000" font-family="Arial" font-size="13px" font-style="normal" font-weight="normal" stroke="none" text-decoration="none" x="309.21630859375" y="209.5"/></g></g><g transform="translate(-70,-134) scale(1,1)"><g><path fill="none" stroke="none"/><text fill="#000000" font-family="Arial" font-size="13px" font-style="normal" font-weight="normal" stroke="none" text-decoration="none" x="309.21630859375" y="209.5"/></g></g><g transform="translate(-70,-134) scale(1,1)"><g><path fill="none" stroke="none"/><text fill="#000000" font-family="Arial" font-size="13px" font-style="normal" font-weight="normal" stroke="none" text-decoration="none" x="309.21630859375" y="209.5"/></g></g><g transform="translate(-70,-134) scale(1,1)"><g><path fill="none" stroke="none"/><text fill="#000000" font-family="Arial" font-size="13px" font-style="normal" font-weight="normal" stroke="none" text-decoration="none" x="286.09814453125" y="214.5">Camera</text></g></g><g transform="translate(-70,-134) scale(1,1)"><g><path fill="none" stroke="none"/><text fill="#000000" font-family="Arial" font-size="13px" font-style="normal" font-weight="normal" stroke="none" text-decoration="none" x="-32.5" y="12.5"/></g></g><g transform="translate(-70,-134) scale(1,1)"><rect fill="#C0C0C0" height="87" opacity="0.2" stroke="none" width="106.4326171875" x="487" y="207"/></g><g transform="translate(-70,-134) scale(1,1)"><rect fill="#ffffff" height="87" stroke="none" width="106.4326171875" x="480" y="200"/></g><g transform="translate(-70,-134) scale(1,1)"><path d="M 480 200 L 586.4326171875 200 L 586.4326171875 287 L 480 287 L 480 200 Z Z" fill="none" stroke="#000000" stroke-miterlimit="10"/></g><g transform="translate(-70,-134) scale(1,1)"><g><path fill="none" stroke="none"/><text fill="#000000" font-family="Arial" font-size="13px" font-style="normal" font-weight="normal" stroke="none" text-decoration="none" x="533.21630859375" y="217.5"/></g></g><g transform="translate(-70,-134) scale(1,1)"><g><path fill="none" stroke="none"/><text fill="#000000" font-family="Arial" font-size="13px" font-style="normal" font-weight="normal" stroke="none" text-decoration="none" x="533.21630859375" y="217.5"/></g></g><g transform="translate(-70,-134) scale(1,1)"><g><path fill="none" stroke="none"/><text fill="#000000" font-family="Arial" font-size="13px" font-style="normal" font-weight="normal" stroke="none" text-decoration="none" x="533.21630859375" y="217.5"/></g></g><g transform="translate(-70,-134) scale(1,1)"><g><path fill="none" stroke="none"/><text fill="#000000" font-family="Arial" font-size="13px" font-style="normal" font-weight="normal" stroke="none" text-decoration="none" x="533.21630859375" y="217.5"/></g></g><g transform="translate(-70,-134) scale(1,1)"><g><path fill="none" stroke="none"/><text fill="#000000" font-family="Arial" font-size="13px" font-style="normal" font-weight="normal" stroke="none" text-decoration="none" x="504.3154296875" y="222.5">IR Sensor</text></g></g><g transform="translate(-70,-134) scale(1,1)"><g><path fill="none" stroke="none"/><text fill="#000000" font-family="Arial" font-size="13px" font-style="normal" font-weight="normal" stroke="none" text-decoration="none" x="7.5" y="28.5"/></g></g><g transform="translate(-70,-134) scale(1,1)"><path d="M 209 423 L 262.18994140625 423 Q 272.18994140625 423 272.18994140625 433 L 272.18994140625 500 Q 272.18994140625 510 262.18994140625 510 L 209 510 Q 199 510 199 500 L 199 433 Q 199 423 209 423 Z" fill="#C0C0C0" opacity="0.2" stroke="none"/></g><g transform="translate(-70,-134) scale(1,1)"><path d="M 202 416 L 255.18994140625 416 Q 265.18994140625 416 265.18994140625 426 L 265.18994140625 493 Q 265.18994140625 503 255.18994140625 503 L 202 503 Q 192 503 192 493 L 192 426 Q 192 416 202 416 Z" fill="#ffffff" stroke="none"/></g><g transform="translate(-70,-134) scale(1,1)"><path d="M 202 416 L 255.18994140625 416 Q 265.18994140625 416 265.18994140625 426 L 265.18994140625 493 Q 265.18994140625 503 255.18994140625 503 L 202 503 Q 192 503 192 493 L 192 426 Q 192 416 202 416 Z" fill="none" stroke="#000000" stroke-miterlimit="10"/></g><g transform="translate(-70,-134) scale(1,1)"><path d="M 192 439 L 265.18994140625 439" fill="none" stroke="#000000" stroke-miterlimit="10"/></g><g transform="translate(-70,-134) scale(1,1)"><g><path fill="none" stroke="none"/><text fill="#000000" font-family="Arial" font-size="13px" font-style="normal" font-weight="normal" stroke="none" text-decoration="none" x="215.226806640625" y="460.5">Real</text><text fill="#000000" font-family="Arial" font-size="13px" font-style="normal" font-weight="normal" stroke="none" text-decoration="none" x="214.39208984375" y="473.5">Time</text><text fill="#000000" font-family="Arial" font-size="13px" font-style="normal" font-weight="normal" stroke="none" text-decoration="none" x="202.214111328125" y="486.5">detection</text></g></g><g transform="translate(-70,-134) scale(1,1)"><g><path fill="none" stroke="none"/><text fill="#000000" font-family="Arial" font-size="13px" font-style="normal" font-weight="normal" stroke="none" text-decoration="none" x="228.594970703125" y="433.5"/></g></g><g transform="translate(-70,-134) scale(1,1)"><path d="M 166 279 L 166 451 M 166 451 A 8 8 0 0 0 174 459 L 192 459" fill="none" stroke="#000000" stroke-miterlimit="10"/></g><g transform="translate(-70,-134) scale(1,1)"><path d="M 181.83732514237585 463.209517756016 L 192 459 L 181.83732514237585 454.790482243984" fill="#000000" stroke="none"/></g><g transform="translate(-70,-134) scale(1,1)"><path d="M 181.83732514237585 463.209517756016 L 192 459 L 181.83732514237585 454.790482243984 L 181.83732514237585 463.209517756016" fill="none" stroke="#000000" stroke-miterlimit="10"/></g><g transform="translate(-70,-134) scale(1,1)"><g><path fill="none" stroke="none"/><text fill="#000000" font-family="Arial" font-size="13px" font-style="normal" font-weight="normal" stroke="none" text-decoration="none" x="142.5" y="332.5">Detection</text></g></g><g transform="translate(-70,-134) scale(1,1)"><path d="M 265 459 L 276 459 M 276 459 A 8 8 0 0 0 284 451 L 284 271" fill="none" stroke="#000000" stroke-miterlimit="10"/></g><g transform="translate(-70,-134) scale(1,1)"><path d="M 288.209517756016 281.16267485762415 L 284 271 L 279.790482243984 281.16267485762415" fill="#000000" stroke="none"/></g><g transform="translate(-70,-134) scale(1,1)"><path d="M 288.209517756016 281.16267485762415 L 284 271 L 279.790482243984 281.16267485762415 L 288.209517756016 281.16267485762415" fill="none" stroke="#000000" stroke-miterlimit="10"/></g><g transform="translate(-70,-134) scale(1,1)"><g><path fill="none" stroke="none"/><text fill="#000000" font-family="Arial" font-size="13px" font-style="normal" font-weight="normal" stroke="none" text-decoration="none" x="198.5" y="331.5">of face Through cam/</text></g></g><g transform="translate(-70,-134) scale(1,1)"><path d="M 362 234 L 480 234" fill="none" stroke="#000000" stroke-miterlimit="10"/></g><g transform="translate(-70,-134) scale(1,1)"><path d="M 469.83732514237585 238.209517756016 L 480 234 L 469.83732514237585 229.790482243984" fill="#000000" stroke="none"/></g><g transform="translate(-70,-134) scale(1,1)"><path d="M 469.83732514237585 238.209517756016 L 480 234 L 469.83732514237585 229.790482243984 L 469.83732514237585 238.209517756016" fill="none" stroke="#000000" stroke-miterlimit="10"/></g><g transform="translate(-70,-134) scale(1,1)"><g><path fill="none" stroke="none"/><text fill="#000000" font-family="Arial" font-size="13px" font-style="normal" font-weight="normal" stroke="none" text-decoration="none" x="381.5" y="225.5">Sleepy/Drunk</text></g></g><g transform="translate(-70,-134) scale(1,1)"><path d="M 625 415 L 678.18994140625 415 Q 688.18994140625 415 688.18994140625 425 L 688.18994140625 473 Q 688.18994140625 483 678.18994140625 483 L 625 483 Q 615 483 615 473 L 615 425 Q 615 415 625 415 Z" fill="#C0C0C0" opacity="0.2" stroke="none"/></g><g transform="translate(-70,-134) scale(1,1)"><path d="M 618 408 L 671.18994140625 408 Q 681.18994140625 408 681.18994140625 418 L 681.18994140625 466 Q 681.18994140625 476 671.18994140625 476 L 618 476 Q 608 476 608 466 L 608 418 Q 608 408 618 408 Z" fill="#ffffff" stroke="none"/></g><g transform="translate(-70,-134) scale(1,1)"><path d="M 618 408 L 671.18994140625 408 Q 681.18994140625 408 681.18994140625 418 L 681.18994140625 466 Q 681.18994140625 476 671.18994140625 476 L 618 476 Q 608 476 608 466 L 608 418 Q 608 408 618 408 Z" fill="none" stroke="#000000" stroke-miterlimit="10"/></g><g transform="translate(-70,-134) scale(1,1)"><path d="M 608 431 L 681.18994140625 431" fill="none" stroke="#000000" stroke-miterlimit="10"/></g><g transform="translate(-70,-134) scale(1,1)"><g><path fill="none" stroke="none"/><text fill="#000000" font-family="Arial" font-size="13px" font-style="normal" font-weight="normal" stroke="none" text-decoration="none" x="631.22998046875" y="452.5">Alert</text><text fill="#000000" font-family="Arial" font-size="13px" font-style="normal" font-weight="normal" stroke="none" text-decoration="none" x="622.924072265625" y="465.5">System</text></g></g><g transform="translate(-70,-134) scale(1,1)"><g><path fill="none" stroke="none"/><text fill="#000000" font-family="Arial" font-size="13px" font-style="normal" font-weight="normal" stroke="none" text-decoration="none" x="644.594970703125" y="425.5"/></g></g><g transform="translate(-70,-134) scale(1,1)"><path d="M 515 287 L 515 434 M 515 434 A 8 8 0 0 0 523 442 L 608 442" fill="none" stroke="#000000" stroke-miterlimit="10"/></g><g transform="translate(-70,-134) scale(1,1)"><path d="M 597.8373251423759 446.209517756016 L 608 442 L 597.8373251423758 437.790482243984" fill="#000000" stroke="none"/></g><g transform="translate(-70,-134) scale(1,1)"><path d="M 597.8373251423759 446.209517756016 L 608 442 L 597.8373251423758 437.790482243984 L 597.8373251423759 446.209517756016" fill="none" stroke="#000000" stroke-miterlimit="10"/></g><g transform="translate(-70,-134) scale(1,1)"><g><path fill="none" stroke="none"/><text fill="#000000" font-family="Arial" font-size="13px" font-style="normal" font-weight="normal" stroke="none" text-decoration="none" x="497.5" y="411.5">If Yes</text></g></g><g transform="translate(-70,-134) scale(1,1)"><path d="M 644 408 L 644 152 M 644 152 A 8 8 0 0 0 636 144 L 194 144 M 194 144 A 8 8 0 0 0 186 152 L 186 192" fill="none" stroke="#000000" stroke-miterlimit="10"/></g><g transform="translate(-70,-134) scale(1,1)"><path d="M 181.790482243984 181.83732514237585 L 186 192 L 190.209517756016 181.83732514237585" fill="#000000" stroke="none"/></g><g transform="translate(-70,-134) scale(1,1)"><path d="M 181.790482243984 181.83732514237585 L 186 192 L 190.209517756016 181.83732514237585 L 181.790482243984 181.83732514237585" fill="none" stroke="#000000" stroke-miterlimit="10"/></g><g transform="translate(-70,-134) scale(1,1)"><g><path fill="none" stroke="none"/><text fill="#000000" font-family="Arial" font-size="13px" font-style="normal" font-weight="normal" stroke="none" text-decoration="none" x="325.5" y="165.5">Alerts Driver/Any other System</text></g></g></g></svg>