<?xml version="1.0" encoding="UTF-8" standalone="no"?><svg xmlns="http://www.w3.org/2000/svg" xmlns:xlink="http://www.w3.org/1999/xlink" height="493" version="1.1" width="1150.0615234375"><defs/><g><g transform="translate(-142,-86) scale(1,1)"><rect fill="#C0C0C0" height="111" opacity="0.2" stroke="none" width="106.4326171875" x="159" y="215"/></g><g transform="translate(-142,-86) scale(1,1)"><rect fill="#ffffff" height="111" stroke="none" width="106.4326171875" x="152" y="208"/></g><g transform="translate(-142,-86) scale(1,1)"><path d="M 152 208 L 258.4326171875 208 L 258.4326171875 319 L 152 319 L 152 208 Z Z" fill="none" stroke="#000000" stroke-miterlimit="10"/></g><g transform="translate(-142,-86) scale(1,1)"><g><path fill="none" stroke="none"/><text fill="#000000" font-family="Arial" font-size="13px" font-style="normal" font-weight="normal" stroke="none" text-decoration="none" x="205.21630859375" y="225.5"/></g></g><g transform="translate(-142,-86) scale(1,1)"><g><path fill="none" stroke="none"/><text fill="#000000" font-family="Arial" font-size="13px" font-style="normal" font-weight="normal" stroke="none" text-decoration="none" x="205.21630859375" y="225.5"/></g></g><g transform="translate(-142,-86) scale(1,1)"><g><path fill="none" stroke="none"/><text fill="#000000" font-family="Arial" font-size="13px" font-style="normal" font-weight="normal" stroke="none" text-decoration="none" x="205.21630859375" y="225.5"/></g></g><g transform="translate(-142,-86) scale(1,1)"><g><path fill="none" stroke="none"/><text fill="#000000" font-family="Arial" font-size="13px" font-style="normal" font-weight="normal" stroke="none" text-decoration="none" x="187.884033203125" y="230.5">Driver</text></g></g><g transform="translate(-142,-86) scale(1,1)"><g><path fill="none" stroke="none"/><text fill="#000000" font-family="Arial" font-size="13px" font-style="normal" font-weight="normal" stroke="none" text-decoration="none" x="-0.5" y="12.5"/></g></g><g transform="translate(-142,-86) scale(1,1)"><rect fill="#C0C0C0" height="119" opacity="0.2" stroke="none" width="106.4326171875" x="455" y="199"/></g><g transform="translate(-142,-86) scale(1,1)"><rect fill="#ffffff" height="119" stroke="none" width="106.4326171875" x="448" y="192"/></g><g transform="translate(-142,-86) scale(1,1)"><path d="M 448 192 L 554.4326171875 192 L 554.4326171875 311 L 448 311 L 448 192 Z Z" fill="none" stroke="#000000" stroke-miterlimit="10"/></g><g transform="translate(-142,-86) scale(1,1)"><g><path fill="none" stroke="none"/><text fill="#000000" font-family="Arial" font-size="13px" font-style="normal" font-weight="normal" stroke="none" text-decoration="none" x="501.21630859375" y="209.5"/></g></g><g transform="translate(-142,-86) scale(1,1)"><g><path fill="none" stroke="none"/><text fill="#000000" font-family="Arial" font-size="13px" font-style="normal" font-weight="normal" stroke="none" text-decoration="none" x="501.21630859375" y="209.5"/></g></g><g transform="translate(-142,-86) scale(1,1)"><g><path fill="none" stroke="none"/><text fill="#000000" font-family="Arial" font-size="13px" font-style="normal" font-weight="normal" stroke="none" text-decoration="none" x="501.21630859375" y="209.5"/></g></g><g transform="translate(-142,-86) scale(1,1)"><g><path fill="none" stroke="none"/><text fill="#000000" font-family="Arial" font-size="13px" font-style="normal" font-weight="normal" stroke="none" text-decoration="none" x="478.09814453125" y="214.5">Camera</text></g></g><g transform="translate(-142,-86) scale(1,1)"><g><path fill="none" stroke="none"/><text fill="#000000" font-family="Arial" font-size="13px" font-style="normal" font-weight="normal" stroke="none" text-decoration="none" x="-0.5" y="12.5"/></g></g><g transform="translate(-142,-86) scale(1,1)"><rect fill="#C0C0C0" height="93" opacity="0.2" stroke="none" width="106.4326171875" x="711" y="199"/></g><g transform="translate(-142,-86) scale(1,1)"><rect fill="#ffffff" height="93" stroke="none" width="106.4326171875" x="704" y="192"/></g><g transform="translate(-142,-86) scale(1,1)"><path d="M 704 192 L 810.4326171875 192 L 810.4326171875 285 L 704 285 L 704 192 Z Z" fill="none" stroke="#000000" stroke-miterlimit="10"/></g><g transform="translate(-142,-86) scale(1,1)"><g><path fill="none" stroke="none"/><text fill="#000000" font-family="Arial" font-size="13px" font-style="normal" font-weight="normal" stroke="none" text-decoration="none" x="757.21630859375" y="209.5"/></g></g><g transform="translate(-142,-86) scale(1,1)"><g><path fill="none" stroke="none"/><text fill="#000000" font-family="Arial" font-size="13px" font-style="normal" font-weight="normal" stroke="none" text-decoration="none" x="757.21630859375" y="209.5"/></g></g><g transform="translate(-142,-86) scale(1,1)"><g><path fill="none" stroke="none"/><text fill="#000000" font-family="Arial" font-size="13px" font-style="normal" font-weight="normal" stroke="none" text-decoration="none" x="757.21630859375" y="257.5"/></g></g><g transform="translate(-142,-86) scale(1,1)"><g><path fill="none" stroke="none"/><text fill="#000000" font-family="Arial" font-size="13px" font-style="normal" font-weight="normal" stroke="none" text-decoration="none" x="728.3154296875" y="214.5">IR Sensor</text></g></g><g transform="translate(-142,-86) scale(1,1)"><g><path fill="none" stroke="none"/><text fill="#000000" font-family="Arial" font-size="13px" font-style="normal" font-weight="normal" stroke="none" text-decoration="none" x="-8.5" y="-19.5"/></g></g><g transform="translate(-142,-86) scale(1,1)"><path d="M 321 399 L 388.64990234375 399 Q 398.64990234375 399 398.64990234375 409 L 398.64990234375 508 Q 398.64990234375 518 388.64990234375 518 L 321 518 Q 311 518 311 508 L 311 409 Q 311 399 321 399 Z" fill="#C0C0C0" opacity="0.2" stroke="none"/></g><g transform="translate(-142,-86) scale(1,1)"><path d="M 314 392 L 381.64990234375 392 Q 391.64990234375 392 391.64990234375 402 L 391.64990234375 501 Q 391.64990234375 511 381.64990234375 511 L 314 511 Q 304 511 304 501 L 304 402 Q 304 392 314 392 Z" fill="#ffffff" stroke="none"/></g><g transform="translate(-142,-86) scale(1,1)"><path d="M 314 392 L 381.64990234375 392 Q 391.64990234375 392 391.64990234375 402 L 391.64990234375 501 Q 391.64990234375 511 381.64990234375 511 L 314 511 Q 304 511 304 501 L 304 402 Q 304 392 314 392 Z" fill="none" stroke="#000000" stroke-miterlimit="10"/></g><g transform="translate(-142,-86) scale(1,1)"><path d="M 304 415 L 391.64990234375 415" fill="none" stroke="#000000" stroke-miterlimit="10"/></g><g transform="translate(-142,-86) scale(1,1)"><g><path fill="none" stroke="none"/><text fill="#000000" font-family="Arial" font-size="13px" font-style="normal" font-weight="normal" stroke="none" text-decoration="none" x="327.58544921875" y="436.5">Engine</text><text fill="#000000" font-family="Arial" font-size="13px" font-style="normal" font-weight="normal" stroke="none" text-decoration="none" x="313.5" y="449.5">InItialisation</text></g></g><g transform="translate(-142,-86) scale(1,1)"><g><path fill="none" stroke="none"/><text fill="#000000" font-family="Arial" font-size="13px" font-style="normal" font-weight="normal" stroke="none" text-decoration="none" x="347.824951171875" y="409.5"/></g></g><g transform="translate(-142,-86) scale(1,1)"><path d="M 247 319 L 247 386 M 247 386 A 8 8 0 0 0 255 394 L 304 394" fill="none" stroke="#000000" stroke-miterlimit="10"/></g><g transform="translate(-142,-86) scale(1,1)"><path d="M 293.83732514237585 398.209517756016 L 304 394 L 293.83732514237585 389.790482243984" fill="#000000" stroke="none"/></g><g transform="translate(-142,-86) scale(1,1)"><path d="M 293.83732514237585 398.209517756016 L 304 394 L 293.83732514237585 389.790482243984 L 293.83732514237585 398.209517756016" fill="none" stroke="#000000" stroke-miterlimit="10"/></g><g transform="translate(-142,-86) scale(1,1)"><g><path fill="none" stroke="none"/><text fill="#000000" font-family="Arial" font-size="13px" font-style="normal" font-weight="normal" stroke="none" text-decoration="none" x="158.5" y="371.5">Engine Starts</text></g></g><g transform="translate(-142,-86) scale(1,1)"><path d="M 392 393 L 447 393 M 447 393 A 8 8 0 0 0 455 385 L 455 311" fill="none" stroke="#000000" stroke-miterlimit="10"/></g><g transform="translate(-142,-86) scale(1,1)"><path d="M 459.209517756016 321.16267485762415 L 455 311 L 450.790482243984 321.16267485762415" fill="#000000" stroke="none"/></g><g transform="translate(-142,-86) scale(1,1)"><path d="M 459.209517756016 321.16267485762415 L 455 311 L 450.790482243984 321.16267485762415 L 459.209517756016 321.16267485762415" fill="none" stroke="#000000" stroke-miterlimit="10"/></g><g transform="translate(-142,-86) scale(1,1)"><g><path fill="none" stroke="none"/><text fill="#000000" font-family="Arial" font-size="13px" font-style="normal" font-weight="normal" stroke="none" text-decoration="none" x="358.5" y="348.5">Starts Camera</text></g></g><g transform="translate(-142,-86) scale(1,1)"><path d="M 561 439 L 628 439 Q 638 439 638 449 L 638 508 Q 638 518 628 518 L 561 518 Q 551 518 551 508 L 551 449 Q 551 439 561 439 Z" fill="#C0C0C0" opacity="0.2" stroke="none"/></g><g transform="translate(-142,-86) scale(1,1)"><path d="M 554 432 L 621 432 Q 631 432 631 442 L 631 501 Q 631 511 621 511 L 554 511 Q 544 511 544 501 L 544 442 Q 544 432 554 432 Z" fill="#ffffff" stroke="none"/></g><g transform="translate(-142,-86) scale(1,1)"><path d="M 554 432 L 621 432 Q 631 432 631 442 L 631 501 Q 631 511 621 511 L 554 511 Q 544 511 544 501 L 544 442 Q 544 432 554 432 Z" fill="none" stroke="#000000" stroke-miterlimit="10"/></g><g transform="translate(-142,-86) scale(1,1)"><path d="M 544 455 L 631 455" fill="none" stroke="#000000" stroke-miterlimit="10"/></g><g transform="translate(-142,-86) scale(1,1)"><g><path fill="none" stroke="none"/><text fill="#000000" font-family="Arial" font-size="13px" font-style="normal" font-weight="normal" stroke="none" text-decoration="none" x="560.0400390625" y="476.5">Detection</text><text fill="#000000" font-family="Arial" font-size="13px" font-style="normal" font-weight="normal" stroke="none" text-decoration="none" x="567.9873046875" y="489.5">of face</text></g></g><g transform="translate(-142,-86) scale(1,1)"><g><path fill="none" stroke="none"/><text fill="#000000" font-family="Arial" font-size="13px" font-style="normal" font-weight="normal" stroke="none" text-decoration="none" x="587.5" y="449.5"/></g></g><g transform="translate(-142,-86) scale(1,1)"><path d="M 524 311 L 524 424 M 524 424 A 8 8 0 0 0 532 432 L 544 432" fill="none" stroke="#000000" stroke-miterlimit="10"/></g><g transform="translate(-142,-86) scale(1,1)"><path d="M 533.8373251423759 436.209517756016 L 544 432 L 533.8373251423758 427.790482243984" fill="#000000" stroke="none"/></g><g transform="translate(-142,-86) scale(1,1)"><path d="M 533.8373251423759 436.209517756016 L 544 432 L 533.8373251423758 427.790482243984 L 533.8373251423759 436.209517756016" fill="none" stroke="#000000" stroke-miterlimit="10"/></g><g transform="translate(-142,-86) scale(1,1)"><g><path fill="none" stroke="none"/><text fill="#000000" font-family="Arial" font-size="13px" font-style="normal" font-weight="normal" stroke="none" text-decoration="none" x="523.5" y="372.5">Detects face</text></g></g><g transform="translate(-142,-86) scale(1,1)"><path d="M 631 432 L 741 432 M 741 432 A 8 8 0 0 0 749 424 L 749 285" fill="none" stroke="#000000" stroke-miterlimit="10"/></g><g transform="translate(-142,-86) scale(1,1)"><path d="M 753.209517756016 295.16267485762415 L 749 285 L 744.790482243984 295.16267485762415" fill="#000000" stroke="none"/></g><g transform="translate(-142,-86) scale(1,1)"><path d="M 753.209517756016 295.16267485762415 L 749 285 L 744.790482243984 295.16267485762415 L 753.209517756016 295.16267485762415" fill="none" stroke="#000000" stroke-miterlimit="10"/></g><g transform="translate(-142,-86) scale(1,1)"><g><path fill="none" stroke="none"/><text fill="#000000" font-family="Arial" font-size="13px" font-style="normal" font-weight="normal" stroke="none" text-decoration="none" x="653.5" y="420.5">Sleepy/Drunk</text></g></g><g transform="translate(-142,-86) scale(1,1)"><path d="M 993 231 L 1046.18994140625 231 Q 1056.18994140625 231 1056.18994140625 241 L 1056.18994140625 300 Q 1056.18994140625 310 1046.18994140625 310 L 993 310 Q 983 310 983 300 L 983 241 Q 983 231 993 231 Z" fill="#C0C0C0" opacity="0.2" stroke="none"/></g><g transform="translate(-142,-86) scale(1,1)"><path d="M 986 224 L 1039.18994140625 224 Q 1049.18994140625 224 1049.18994140625 234 L 1049.18994140625 293 Q 1049.18994140625 303 1039.18994140625 303 L 986 303 Q 976 303 976 293 L 976 234 Q 976 224 986 224 Z" fill="#ffffff" stroke="none"/></g><g transform="translate(-142,-86) scale(1,1)"><path d="M 986 224 L 1039.18994140625 224 Q 1049.18994140625 224 1049.18994140625 234 L 1049.18994140625 293 Q 1049.18994140625 303 1039.18994140625 303 L 986 303 Q 976 303 976 293 L 976 234 Q 976 224 986 224 Z" fill="none" stroke="#000000" stroke-miterlimit="10"/></g><g transform="translate(-142,-86) scale(1,1)"><path d="M 976 247 L 1049.18994140625 247" fill="none" stroke="#000000" stroke-miterlimit="10"/></g><g transform="translate(-142,-86) scale(1,1)"><g><path fill="none" stroke="none"/><text fill="#000000" font-family="Arial" font-size="13px" font-style="normal" font-weight="normal" stroke="none" text-decoration="none" x="999.22998046875" y="268.5">Alert</text><text fill="#000000" font-family="Arial" font-size="13px" font-style="normal" font-weight="normal" stroke="none" text-decoration="none" x="990.924072265625" y="281.5">System</text></g></g><g transform="translate(-142,-86) scale(1,1)"><g><path fill="none" stroke="none"/><text fill="#000000" font-family="Arial" font-size="13px" font-style="normal" font-weight="normal" stroke="none" text-decoration="none" x="1012.594970703125" y="241.5"/></g></g><g transform="translate(-142,-86) scale(1,1)"><path d="M 810 259 L 976 259" fill="none" stroke="#000000" stroke-miterlimit="10"/></g><g transform="translate(-142,-86) scale(1,1)"><path d="M 965.8373251423759 263.209517756016 L 976 259 L 965.8373251423758 254.790482243984" fill="#000000" stroke="none"/></g><g transform="translate(-142,-86) scale(1,1)"><path d="M 965.8373251423759 263.209517756016 L 976 259 L 965.8373251423758 254.790482243984 L 965.8373251423759 263.209517756016" fill="none" stroke="#000000" stroke-miterlimit="10"/></g><g transform="translate(-142,-86) scale(1,1)"><g><path fill="none" stroke="none"/><text fill="#000000" font-family="Arial" font-size="13px" font-style="normal" font-weight="normal" stroke="none" text-decoration="none" x="876.5" y="250.5">If Yes</text></g></g><g transform="translate(-142,-86) scale(1,1)"><path d="M 976 224 L 976 104 M 976 104 A 8 8 0 0 0 968 96 L 266 96 M 266 96 A 8 8 0 0 0 258 104 L 258 208" fill="none" stroke="#000000" stroke-miterlimit="10"/></g><g transform="translate(-142,-86) scale(1,1)"><path d="M 253.790482243984 197.83732514237585 L 258 208 L 262.209517756016 197.83732514237585" fill="#000000" stroke="none"/></g><g transform="translate(-142,-86) scale(1,1)"><path d="M 253.790482243984 197.83732514237585 L 258 208 L 262.209517756016 197.83732514237585 L 253.790482243984 197.83732514237585" fill="none" stroke="#000000" stroke-miterlimit="10"/></g><g transform="translate(-142,-86) scale(1,1)"><g><path fill="none" stroke="none"/><text fill="#000000" font-family="Arial" font-size="13px" font-style="normal" font-weight="normal" stroke="none" text-decoration="none" x="582.5" y="117.5">alerts driver</text></g></g><g transform="translate(-142,-86) scale(1,1)"><rect fill="#C0C0C0" height="47" opacity="0.2" stroke="none" width="106.4326171875" x="983" y="399"/></g><g transform="translate(-142,-86) scale(1,1)"><rect fill="#ffffff" height="47" stroke="none" width="106.4326171875" x="976" y="392"/></g><g transform="translate(-142,-86) scale(1,1)"><path d="M 976 392 L 1082.4326171875 392 L 1082.4326171875 439 L 976 439 L 976 392 Z Z" fill="none" stroke="#000000" stroke-miterlimit="10"/></g><g transform="translate(-142,-86) scale(1,1)"><g><path fill="none" stroke="none"/><text fill="#000000" font-family="Arial" font-size="13px" font-style="normal" font-weight="normal" stroke="none" text-decoration="none" x="1029.21630859375" y="409.5"/></g></g><g transform="translate(-142,-86) scale(1,1)"><g><path fill="none" stroke="none"/><text fill="#000000" font-family="Arial" font-size="13px" font-style="normal" font-weight="normal" stroke="none" text-decoration="none" x="1029.21630859375" y="409.5"/></g></g><g transform="translate(-142,-86) scale(1,1)"><g><path fill="none" stroke="none"/><text fill="#000000" font-family="Arial" font-size="13px" font-style="normal" font-weight="normal" stroke="none" text-decoration="none" x="996.341796875" y="414.5">Emergency</text><text fill="#000000" font-family="Arial" font-size="13px" font-style="normal" font-weight="normal" stroke="none" text-decoration="none" x="1004.292236328125" y="427.5">Services</text></g></g><g transform="translate(-142,-86) scale(1,1)"><g><path fill="none" stroke="none"/><text fill="#000000" font-family="Arial" font-size="13px" font-style="normal" font-weight="normal" stroke="none" text-decoration="none" x="-0.5" y="12.5"/></g></g><g transform="translate(-142,-86) scale(1,1)"><path d="M 1016 303 L 1016 392" fill="none" stroke="#000000" stroke-miterlimit="10"/></g><g transform="translate(-142,-86) scale(1,1)"><path d="M 1011.790482243984 381.83732514237585 L 1016 392 L 1020.209517756016 381.83732514237585" fill="#000000" stroke="none"/></g><g transform="translate(-142,-86) scale(1,1)"><path d="M 1011.790482243984 381.83732514237585 L 1016 392 L 1020.209517756016 381.83732514237585 L 1011.790482243984 381.83732514237585" fill="none" stroke="#000000" stroke-miterlimit="10"/></g><g transform="translate(-142,-86) scale(1,1)"><g><path fill="none" stroke="none"/><text fill="#000000" font-family="Arial" font-size="13px" font-style="normal" font-weight="normal" stroke="none" text-decoration="none" x="1014.5" y="352.5">Alerts Hospitals and other emergency services</text></g></g><g transform="translate(-142,-86) scale(1,1)"><rect fill="#C0C0C0" height="55" opacity="0.2" stroke="none" width="106.4326171875" x="815" y="375"/></g><g transform="translate(-142,-86) scale(1,1)"><rect fill="#ffffff" height="55" stroke="none" width="106.4326171875" x="808" y="368"/></g><g transform="translate(-142,-86) scale(1,1)"><path d="M 808 368 L 914.4326171875 368 L 914.4326171875 423 L 808 423 L 808 368 Z Z" fill="none" stroke="#000000" stroke-miterlimit="10"/></g><g transform="translate(-142,-86) scale(1,1)"><g><path fill="none" stroke="none"/><text fill="#000000" font-family="Arial" font-size="13px" font-style="normal" font-weight="normal" stroke="none" text-decoration="none" x="861.21630859375" y="385.5"/></g></g><g transform="translate(-142,-86) scale(1,1)"><g><path fill="none" stroke="none"/><text fill="#000000" font-family="Arial" font-size="13px" font-style="normal" font-weight="normal" stroke="none" text-decoration="none" x="861.21630859375" y="385.5"/></g></g><g transform="translate(-142,-86) scale(1,1)"><g><path fill="none" stroke="none"/><text fill="#000000" font-family="Arial" font-size="13px" font-style="normal" font-weight="normal" stroke="none" text-decoration="none" x="847.130859375" y="390.5">OBD</text></g></g><g transform="translate(-142,-86) scale(1,1)"><g><path fill="none" stroke="none"/><text fill="#000000" font-family="Arial" font-size="13px" font-style="normal" font-weight="normal" stroke="none" text-decoration="none" x="-0.5" y="12.5"/></g></g><g transform="translate(-142,-86) scale(1,1)"><path d="M 914 368 L 968 368 M 968 368 A 8 8 0 0 0 976 360 L 976 303" fill="none" stroke="#000000" stroke-miterlimit="10"/></g><g transform="translate(-142,-86) scale(1,1)"><path d="M 980.209517756016 313.16267485762415 L 976 303 L 971.790482243984 313.16267485762415" fill="#000000" stroke="none"/></g><g transform="translate(-142,-86) scale(1,1)"><path d="M 980.209517756016 313.16267485762415 L 976 303 L 971.790482243984 313.16267485762415 L 980.209517756016 313.16267485762415" fill="none" stroke="#000000" stroke-miterlimit="10"/></g><g transform="translate(-142,-86) scale(1,1)"><g><path fill="none" stroke="none"/><text fill="#000000" font-family="Arial" font-size="13px" font-style="normal" font-weight="normal" stroke="none" text-decoration="none" x="870.5" y="356.5">Car Crash</text></g></g><g transform="translate(-142,-86) scale(1,1)"><path d="M 347 511 L 347 560 M 347 560 A 8 8 0 0 0 355 568 L 800 568 M 800 568 A 8 8 0 0 0 808 560 L 808 423" fill="none" stroke="#000000" stroke-miterlimit="10"/></g><g transform="translate(-142,-86) scale(1,1)"><path d="M 812.209517756016 433.16267485762415 L 808 423 L 803.790482243984 433.16267485762415" fill="#000000" stroke="none"/></g><g transform="translate(-142,-86) scale(1,1)"><path d="M 812.209517756016 433.16267485762415 L 808 423 L 803.790482243984 433.16267485762415 L 812.209517756016 433.16267485762415" fill="none" stroke="#000000" stroke-miterlimit="10"/></g><g transform="translate(-142,-86) scale(1,1)"><g><path fill="none" stroke="none"/><text fill="#000000" font-family="Arial" font-size="13px" font-style="normal" font-weight="normal" stroke="none" text-decoration="none" x="490.5" y="559.5">System failure/ Driver Mistake</text></g></g></g></svg>