<?xml version="1.0" encoding="UTF-8" standalone="no"?><svg xmlns="http://www.w3.org/2000/svg" xmlns:xlink="http://www.w3.org/1999/xlink" height="638" version="1.1" width="1020"><defs/><g><g transform="translate(-126,2) scale(1,1)"><path d="M 136 8 L 1136 8 L 1136 626 L 136 626 L 136 8" fill="none" stroke="#000000" stroke-miterlimit="10"/></g><g transform="translate(-126,2) scale(1,1)"><path d="M 136 8 L 136 30 L 326.88427734375 30 L 337.88427734375 19 L 337.88427734375 8 L 136 8" fill="#ffffff" stroke="none"/></g><g transform="translate(-126,2) scale(1,1)"><path d="M 136 8 L 136 30 L 326.88427734375 30 L 337.88427734375 19 L 337.88427734375 8 L 136 8 L 136 8" fill="none" stroke="#000000" stroke-miterlimit="10"/></g><g transform="translate(-126,2) scale(1,1)"><g><path fill="none" stroke="none"/><text fill="#000000" font-family="Arial" font-size="13px" font-style="normal" font-weight="normal" stroke="none" text-decoration="none" x="206.97900390625" y="25.5">SequenceDiagram1</text></g></g><g transform="translate(-126,2) scale(1,1)"><g><path fill="none" stroke="none"/><text fill="#000000" font-family="Arial" font-size="13px" font-style="normal" font-weight="bold" stroke="none" text-decoration="none" x="141" y="25.5">interaction</text></g></g><g transform="translate(-126,2) scale(1,1)"><rect fill="#C0C0C0" height="39" opacity="0.2" stroke="none" width="71.736328125" x="239" y="47"/></g><g transform="translate(-126,2) scale(1,1)"><rect fill="#ffffff" height="39" stroke="none" width="71.736328125" x="232" y="40"/></g><g transform="translate(-126,2) scale(1,1)"><path d="M 232 40 L 303.736328125 40 L 303.736328125 79 L 232 79 L 232 40 Z Z" fill="none" stroke="#000000" stroke-miterlimit="10"/></g><g transform="translate(-126,2) scale(1,1)"><g><path fill="none" stroke="none"/><text fill="#000000" font-family="Arial" font-size="13px" font-style="normal" font-weight="bold" stroke="none" text-decoration="none" x="250.535888671875" y="59.5">Driver</text></g></g><g transform="translate(-126,2) scale(1,1)"><path d="M 268.5 80 L 268.5 504" fill="none" stroke="#000000" stroke-dasharray="3" stroke-miterlimit="10"/></g><g transform="translate(-126,2) scale(1,1)"><rect fill="#C0C0C0" height="39" opacity="0.2" stroke="none" width="71.736328125" x="415" y="47"/></g><g transform="translate(-126,2) scale(1,1)"><rect fill="#ffffff" height="39" stroke="none" width="71.736328125" x="408" y="40"/></g><g transform="translate(-126,2) scale(1,1)"><path d="M 408 40 L 479.736328125 40 L 479.736328125 79 L 408 79 L 408 40 Z Z" fill="none" stroke="#000000" stroke-miterlimit="10"/></g><g transform="translate(-126,2) scale(1,1)"><g><path fill="none" stroke="none"/><text fill="#000000" font-family="Arial" font-size="13px" font-style="normal" font-weight="bold" stroke="none" text-decoration="none" x="433.39453125" y="59.5">Car</text></g></g><g transform="translate(-126,2) scale(1,1)"><path d="M 444.5 80 L 444.5 528" fill="none" stroke="#000000" stroke-dasharray="3" stroke-miterlimit="10"/></g><g transform="translate(-126,2) scale(1,1)"><rect fill="#C0C0C0" height="39" opacity="0.2" stroke="none" width="91.26806640625" x="679" y="47"/></g><g transform="translate(-126,2) scale(1,1)"><rect fill="#ffffff" height="39" stroke="none" width="91.26806640625" x="672" y="40"/></g><g transform="translate(-126,2) scale(1,1)"><path d="M 672 40 L 763.26806640625 40 L 763.26806640625 79 L 672 79 L 672 40 Z Z" fill="none" stroke="#000000" stroke-miterlimit="10"/></g><g transform="translate(-126,2) scale(1,1)"><g><path fill="none" stroke="none"/><text fill="#000000" font-family="Arial" font-size="13px" font-style="normal" font-weight="bold" stroke="none" text-decoration="none" x="682.95361328125" y="59.5">Data Server</text></g></g><g transform="translate(-126,2) scale(1,1)"><path d="M 718.5 80 L 718.5 520" fill="none" stroke="#000000" stroke-dasharray="3" stroke-miterlimit="10"/></g><g transform="translate(-126,2) scale(1,1)"><rect fill="#C0C0C0" height="39" opacity="0.2" stroke="none" width="105.708984375" x="839" y="47"/></g><g transform="translate(-126,2) scale(1,1)"><rect fill="#ffffff" height="39" stroke="none" width="105.708984375" x="832" y="40"/></g><g transform="translate(-126,2) scale(1,1)"><path d="M 832 40 L 937.708984375 40 L 937.708984375 79 L 832 79 L 832 40 Z Z" fill="none" stroke="#000000" stroke-miterlimit="10"/></g><g transform="translate(-126,2) scale(1,1)"><g><path fill="none" stroke="none"/><text fill="#000000" font-family="Arial" font-size="13px" font-style="normal" font-weight="bold" stroke="none" text-decoration="none" x="848.0126953125" y="59.5">Alert System</text></g></g><g transform="translate(-126,2) scale(1,1)"><path d="M 885.5 80 L 885.5 544" fill="none" stroke="#000000" stroke-dasharray="3" stroke-miterlimit="10"/></g><g transform="translate(-126,2) scale(1,1)"><path d="M 268 155 L 437 155" fill="none" stroke="#000000" stroke-miterlimit="10"/></g><g transform="translate(-126,2) scale(1,1)"><path d="M 426.83732514237585 159.209517756016 L 437 155 L 426.83732514237585 150.790482243984" fill="#000000" stroke="none"/></g><g transform="translate(-126,2) scale(1,1)"><path d="M 426.83732514237585 159.209517756016 L 437 155 L 426.83732514237585 150.790482243984 L 426.83732514237585 159.209517756016" fill="none" stroke="#000000" stroke-miterlimit="10"/></g><g transform="translate(-126,2) scale(1,1)"><g><path fill="none" stroke="none"/><text fill="#000000" font-family="Arial" font-size="13px" font-style="normal" font-weight="normal" stroke="none" text-decoration="none" x="304.5" y="151.5">1 : Starts engine</text></g></g><g transform="translate(-126,2) scale(1,1)"><rect fill="#ffffff" height="28" stroke="none" width="13" x="437" y="155"/></g><g transform="translate(-126,2) scale(1,1)"><path d="M 437 155 L 450 155 L 450 183 L 437 183 L 437 155 Z Z" fill="none" stroke="#000000" stroke-miterlimit="10"/></g><g transform="translate(-126,2) scale(1,1)"><path d="M 450 176 L 480 176 L 480 196 L 450 196" fill="none" stroke="#000000" stroke-miterlimit="10"/></g><g transform="translate(-126,2) scale(1,1)"><path d="M 460.16267485762415 191.790482243984 L 450 196 L 460.16267485762415 200.209517756016" fill="#000000" stroke="none"/></g><g transform="translate(-126,2) scale(1,1)"><path d="M 460.16267485762415 191.790482243984 L 450 196 L 460.16267485762415 200.209517756016 L 460.16267485762415 191.790482243984" fill="none" stroke="#000000" stroke-miterlimit="10"/></g><g transform="translate(-126,2) scale(1,1)"><g><path fill="none" stroke="none"/><text fill="#000000" font-family="Arial" font-size="13px" font-style="normal" font-weight="normal" stroke="none" text-decoration="none" x="487.5" y="191.5">2 : Starts Camera</text></g></g><g transform="translate(-126,2) scale(1,1)"><rect fill="#ffffff" height="28" stroke="none" width="13" x="437" y="196"/></g><g transform="translate(-126,2) scale(1,1)"><path d="M 437 196 L 450 196 L 450 224 L 437 224 L 437 196 Z Z" fill="none" stroke="#000000" stroke-miterlimit="10"/></g><g transform="translate(-126,2) scale(1,1)"><path d="M 450 216 L 480 216 L 480 236 L 450 236" fill="none" stroke="#000000" stroke-miterlimit="10"/></g><g transform="translate(-126,2) scale(1,1)"><path d="M 460.16267485762415 231.790482243984 L 450 236 L 460.16267485762415 240.209517756016" fill="#000000" stroke="none"/></g><g transform="translate(-126,2) scale(1,1)"><path d="M 460.16267485762415 231.790482243984 L 450 236 L 460.16267485762415 240.209517756016 L 460.16267485762415 231.790482243984" fill="none" stroke="#000000" stroke-miterlimit="10"/></g><g transform="translate(-126,2) scale(1,1)"><g><path fill="none" stroke="none"/><text fill="#000000" font-family="Arial" font-size="13px" font-style="normal" font-weight="normal" stroke="none" text-decoration="none" x="487.5" y="231.5">3 : Starts OBD</text></g></g><g transform="translate(-126,2) scale(1,1)"><rect fill="#ffffff" height="28" stroke="none" width="13" x="437" y="236"/></g><g transform="translate(-126,2) scale(1,1)"><path d="M 437 236 L 450 236 L 450 264 L 437 264 L 437 236 Z Z" fill="none" stroke="#000000" stroke-miterlimit="10"/></g><g transform="translate(-126,2) scale(1,1)"><path d="M 450 248 L 480 248 L 480 268 L 450 268" fill="none" stroke="#000000" stroke-miterlimit="10"/></g><g transform="translate(-126,2) scale(1,1)"><path d="M 460.16267485762415 263.790482243984 L 450 268 L 460.16267485762415 272.209517756016" fill="#000000" stroke="none"/></g><g transform="translate(-126,2) scale(1,1)"><path d="M 460.16267485762415 263.790482243984 L 450 268 L 460.16267485762415 272.209517756016 L 460.16267485762415 263.790482243984" fill="none" stroke="#000000" stroke-miterlimit="10"/></g><g transform="translate(-126,2) scale(1,1)"><g><path fill="none" stroke="none"/><text fill="#000000" font-family="Arial" font-size="13px" font-style="normal" font-weight="normal" stroke="none" text-decoration="none" x="486.5" y="263.5">4 : Starts Receptors</text></g></g><g transform="translate(-126,2) scale(1,1)"><rect fill="#ffffff" height="28" stroke="none" width="13" x="437" y="268"/></g><g transform="translate(-126,2) scale(1,1)"><path d="M 437 268 L 450 268 L 450 296 L 437 296 L 437 268 Z Z" fill="none" stroke="#000000" stroke-miterlimit="10"/></g><g transform="translate(-126,2) scale(1,1)"><path d="M 444 302 L 711 302" fill="none" stroke="#000000" stroke-miterlimit="10"/></g><g transform="translate(-126,2) scale(1,1)"><path d="M 700.8373251423759 306.209517756016 L 711 302 L 700.8373251423758 297.790482243984" fill="#000000" stroke="none"/></g><g transform="translate(-126,2) scale(1,1)"><path d="M 700.8373251423759 306.209517756016 L 711 302 L 700.8373251423758 297.790482243984 L 700.8373251423759 306.209517756016" fill="none" stroke="#000000" stroke-miterlimit="10"/></g><g transform="translate(-126,2) scale(1,1)"><g><path fill="none" stroke="none"/><text fill="#000000" font-family="Arial" font-size="13px" font-style="normal" font-weight="normal" stroke="none" text-decoration="none" x="534.5" y="298.5">5 : Sends Data</text></g></g><g transform="translate(-126,2) scale(1,1)"><rect fill="#ffffff" height="28" stroke="none" width="13" x="711" y="302"/></g><g transform="translate(-126,2) scale(1,1)"><path d="M 711 302 L 724 302 L 724 330 L 711 330 L 711 302 Z Z" fill="none" stroke="#000000" stroke-miterlimit="10"/></g><g transform="translate(-126,2) scale(1,1)"><path d="M 711 322 L 444 322" fill="none" stroke="#000000" stroke-dasharray="3" stroke-miterlimit="10"/></g><g transform="translate(-126,2) scale(1,1)"><path d="M 454.16267485762415 317.790482243984 L 444 322 L 454.16267485762415 326.209517756016" fill="none" stroke="#000000" stroke-miterlimit="10"/></g><g transform="translate(-126,2) scale(1,1)"><g><path fill="none" stroke="none"/><text fill="#000000" font-family="Arial" font-size="13px" font-style="normal" font-weight="normal" stroke="none" text-decoration="none" x="502.5" y="338.5">6 : Sends back input data</text></g></g><g transform="translate(-126,2) scale(1,1)"><path d="M 444 377 L 711 377" fill="none" stroke="#000000" stroke-miterlimit="10"/></g><g transform="translate(-126,2) scale(1,1)"><path d="M 700.8373251423759 381.209517756016 L 711 377 L 700.8373251423758 372.790482243984" fill="#000000" stroke="none"/></g><g transform="translate(-126,2) scale(1,1)"><path d="M 700.8373251423759 381.209517756016 L 711 377 L 700.8373251423758 372.790482243984 L 700.8373251423759 381.209517756016" fill="none" stroke="#000000" stroke-miterlimit="10"/></g><g transform="translate(-126,2) scale(1,1)"><g><path fill="none" stroke="none"/><text fill="#000000" font-family="Arial" font-size="13px" font-style="normal" font-weight="normal" stroke="none" text-decoration="none" x="450.5" y="373.5">7 : Starts  alertness prediction script on data</text></g></g><g transform="translate(-126,2) scale(1,1)"><rect fill="#ffffff" height="28" stroke="none" width="13" x="711" y="377"/></g><g transform="translate(-126,2) scale(1,1)"><path d="M 711 377 L 724 377 L 724 405 L 711 405 L 711 377 Z Z" fill="none" stroke="#000000" stroke-miterlimit="10"/></g><g transform="translate(-126,2) scale(1,1)"><path d="M 724 392 L 878 392" fill="none" stroke="#000000" stroke-miterlimit="10"/></g><g transform="translate(-126,2) scale(1,1)"><path d="M 867.8373251423759 396.209517756016 L 878 392 L 867.8373251423758 387.790482243984" fill="#000000" stroke="none"/></g><g transform="translate(-126,2) scale(1,1)"><path d="M 867.8373251423759 396.209517756016 L 878 392 L 867.8373251423758 387.790482243984 L 867.8373251423759 396.209517756016" fill="none" stroke="#000000" stroke-miterlimit="10"/></g><g transform="translate(-126,2) scale(1,1)"><g><path fill="none" stroke="none"/><text fill="#000000" font-family="Arial" font-size="13px" font-style="normal" font-weight="normal" stroke="none" text-decoration="none" x="728.5" y="388.5">8 : Predict unalert activity</text></g></g><g transform="translate(-126,2) scale(1,1)"><rect fill="#ffffff" height="28" stroke="none" width="13" x="878" y="392"/></g><g transform="translate(-126,2) scale(1,1)"><path d="M 878 392 L 891 392 L 891 420 L 878 420 L 878 392 Z Z" fill="none" stroke="#000000" stroke-miterlimit="10"/></g><g transform="translate(-126,2) scale(1,1)"><path d="M 878 413 L 444 413" fill="none" stroke="#000000" stroke-dasharray="3" stroke-miterlimit="10"/></g><g transform="translate(-126,2) scale(1,1)"><path d="M 454.16267485762415 408.790482243984 L 444 413 L 454.16267485762415 417.209517756016" fill="none" stroke="#000000" stroke-miterlimit="10"/></g><g transform="translate(-126,2) scale(1,1)"><g><path fill="none" stroke="none"/><text fill="#000000" font-family="Arial" font-size="13px" font-style="normal" font-weight="normal" stroke="none" text-decoration="none" x="604.114990234375" y="429.5">9 : Turns on buzzer</text></g></g><g transform="translate(-126,2) scale(1,1)"><path d="M 444 418 L 268 418" fill="none" stroke="#000000" stroke-dasharray="3" stroke-miterlimit="10"/></g><g transform="translate(-126,2) scale(1,1)"><path d="M 278.16267485762415 413.790482243984 L 268 418 L 278.16267485762415 422.209517756016" fill="none" stroke="#000000" stroke-miterlimit="10"/></g><g transform="translate(-126,2) scale(1,1)"><g><path fill="none" stroke="none"/><text fill="#000000" font-family="Arial" font-size="13px" font-style="normal" font-weight="normal" stroke="none" text-decoration="none" x="306.5" y="434.5">10 : Alerts Driver</text></g></g></g></svg>