<?xml version="1.0" encoding="UTF-8" standalone="no"?><svg xmlns="http://www.w3.org/2000/svg" xmlns:xlink="http://www.w3.org/1999/xlink" height="1108" version="1.1" width="1340"><defs/><g><g transform="translate(10,-38) scale(1,1)"><rect fill="#C0C0C0" height="1088" opacity="0.2" stroke="none" width="976" x="191" y="55"/></g><g transform="translate(10,-38) scale(1,1)"><rect fill="#ffffff" height="1088" stroke="none" width="976" x="184" y="48"/></g><g transform="translate(10,-38) scale(1,1)"><path d="M 184 48 L 1160 48 L 1160 1136 L 184 1136 L 184 48 Z Z" fill="none" stroke="#000000" stroke-miterlimit="10"/></g><g transform="translate(10,-38) scale(1,1)"><g><path fill="none" stroke="none"/><text fill="#000000" font-family="Arial" font-size="13px" font-style="normal" font-weight="bold" stroke="none" text-decoration="none" x="597.570556640625" y="67.5">Cupcake order placement</text></g></g><g transform="translate(10,-38) scale(1,1)"><path d="M 28.891636363636362 416.48 C 28.891636363636362 407.930631296 35.655880410763636 401 44 401 C 52.344119589236364 401 59.108363636363634 407.930631296 59.108363636363634 416.48 C 59.108363636363634 425.02936870400003 52.344119589236364 431.96 44 431.96 C 35.655880410763636 431.96 28.891636363636362 425.02936870400003 28.891636363636362 416.48 Z" fill="#ffffff" stroke="none"/></g><g transform="translate(10,-38) scale(1,1)"><path d="M 28.891636363636362 416.48 C 28.891636363636362 407.930631296 35.655880410763636 401 44 401 C 52.344119589236364 401 59.108363636363634 407.930631296 59.108363636363634 416.48 C 59.108363636363634 425.02936870400003 52.344119589236364 431.96 44 431.96 C 35.655880410763636 431.96 28.891636363636362 425.02936870400003 28.891636363636362 416.48 Z" fill="none" stroke="#000000" stroke-miterlimit="10"/></g><g transform="translate(10,-38) scale(1,1)"><path d="M 44 431.96 L 44 462.04" fill="none" stroke="#000000" stroke-miterlimit="10"/></g><g transform="translate(10,-38) scale(1,1)"><path d="M 28.002909090909093 443.24 L 59.99709090909091 443.24" fill="none" stroke="#000000" stroke-miterlimit="10"/></g><g transform="translate(10,-38) scale(1,1)"><path d="M 44 462.04 L 21.78181818181818 493" fill="none" stroke="#000000" stroke-miterlimit="10"/></g><g transform="translate(10,-38) scale(1,1)"><path d="M 44 462.04 L 66.21818181818182 493" fill="none" stroke="#000000" stroke-miterlimit="10"/></g><g transform="translate(10,-38) scale(1,1)"><g><path fill="none" stroke="none"/><text fill="#000000" font-family="Arial" font-size="13px" font-style="normal" font-weight="bold" stroke="none" text-decoration="none" x="17.27001953125" y="513.5">customer</text></g></g><g transform="translate(10,-38) scale(1,1)"><path d="M 1264.8916363636363 408.48 C 1264.8916363636363 399.930631296 1271.6558804107635 393 1280 393 C 1288.3441195892365 393 1295.1083636363637 399.930631296 1295.1083636363637 408.48 C 1295.1083636363637 417.02936870400003 1288.3441195892365 423.96 1280 423.96 C 1271.6558804107635 423.96 1264.8916363636363 417.02936870400003 1264.8916363636363 408.48 Z" fill="#ffffff" stroke="none"/></g><g transform="translate(10,-38) scale(1,1)"><path d="M 1264.8916363636363 408.48 C 1264.8916363636363 399.930631296 1271.6558804107635 393 1280 393 C 1288.3441195892365 393 1295.1083636363637 399.930631296 1295.1083636363637 408.48 C 1295.1083636363637 417.02936870400003 1288.3441195892365 423.96 1280 423.96 C 1271.6558804107635 423.96 1264.8916363636363 417.02936870400003 1264.8916363636363 408.48 Z" fill="none" stroke="#000000" stroke-miterlimit="10"/></g><g transform="translate(10,-38) scale(1,1)"><path d="M 1280 423.96 L 1280 454.04" fill="none" stroke="#000000" stroke-miterlimit="10"/></g><g transform="translate(10,-38) scale(1,1)"><path d="M 1264.002909090909 435.24 L 1295.997090909091 435.24" fill="none" stroke="#000000" stroke-miterlimit="10"/></g><g transform="translate(10,-38) scale(1,1)"><path d="M 1280 454.04 L 1257.7818181818182 485" fill="none" stroke="#000000" stroke-miterlimit="10"/></g><g transform="translate(10,-38) scale(1,1)"><path d="M 1280 454.04 L 1302.2181818181818 485" fill="none" stroke="#000000" stroke-miterlimit="10"/></g><g transform="translate(10,-38) scale(1,1)"><g><path fill="none" stroke="none"/><text fill="#000000" font-family="Arial" font-size="13px" font-style="normal" font-weight="bold" stroke="none" text-decoration="none" x="1251.095947265625" y="505.5">Employee</text></g></g><g transform="translate(10,-38) scale(1,1)"><path d="M 535 248 C 535 238.6111584 589.845112 231 657.5 231 C 725.154888 231 780 238.6111584 780 248 C 780 257.3888416 725.154888 265 657.5 265 C 589.845112 265 535 257.3888416 535 248 Z" fill="#C0C0C0" opacity="0.2" stroke="none"/></g><g transform="translate(10,-38) scale(1,1)"><path d="M 528 241 C 528 231.6111584 582.845112 224 650.5 224 C 718.154888 224 773 231.6111584 773 241 C 773 250.3888416 718.154888 258 650.5 258 C 582.845112 258 528 250.3888416 528 241 Z" fill="#ffffff" stroke="none"/></g><g transform="translate(10,-38) scale(1,1)"><path d="M 528 241 C 528 231.6111584 582.845112 224 650.5 224 C 718.154888 224 773 231.6111584 773 241 C 773 250.3888416 718.154888 258 650.5 258 C 582.845112 258 528 250.3888416 528 241 Z" fill="none" stroke="#000000" stroke-miterlimit="10"/></g><g transform="translate(10,-38) scale(1,1)"><g><path fill="none" stroke="none"/><text fill="#000000" font-family="Arial" font-size="13px" font-style="normal" font-weight="bold" stroke="none" text-decoration="none" x="573.53466796875" y="248">request name email phone</text></g></g><g transform="translate(10,-38) scale(1,1)"><path d="M 1239 437 L 704 259" fill="none" stroke="#000000" stroke-miterlimit="10"/></g><g transform="translate(10,-38) scale(1,1)"><path d="M 714.971887230183 258.214067046024 L 704 259 L 712.3140343841909 266.2025573415621" fill="none" stroke="#000000" stroke-miterlimit="10"/></g><g transform="translate(10,-38) scale(1,1)"><path d="M 600 259 L 89 443" fill="none" stroke="#000000" stroke-miterlimit="10"/></g><g transform="translate(10,-38) scale(1,1)"><path d="M 97.13557421757376 435.59645813476084 L 89 443 L 99.98781435580196 443.51762504038373" fill="none" stroke="#000000" stroke-miterlimit="10"/></g><g transform="translate(10,-38) scale(1,1)"><path d="M 519 336 C 519 326.6111584 560.6375136 319 612 319 C 663.3624864 319 705 326.6111584 705 336 C 705 345.3888416 663.3624864 353 612 353 C 560.6375136 353 519 345.3888416 519 336 Z" fill="#C0C0C0" opacity="0.2" stroke="none"/></g><g transform="translate(10,-38) scale(1,1)"><path d="M 512 329 C 512 319.6111584 553.6375136 312 605 312 C 656.3624864 312 698 319.6111584 698 329 C 698 338.3888416 656.3624864 346 605 346 C 553.6375136 346 512 338.3888416 512 329 Z" fill="#ffffff" stroke="none"/></g><g transform="translate(10,-38) scale(1,1)"><path d="M 512 329 C 512 319.6111584 553.6375136 312 605 312 C 656.3624864 312 698 319.6111584 698 329 C 698 338.3888416 656.3624864 346 605 346 C 553.6375136 346 512 338.3888416 512 329 Z" fill="none" stroke="#000000" stroke-miterlimit="10"/></g><g transform="translate(10,-38) scale(1,1)"><g><path fill="none" stroke="none"/><text fill="#000000" font-family="Arial" font-size="13px" font-style="normal" font-weight="bold" stroke="none" text-decoration="none" x="549.359619140625" y="336">provide Information</text></g></g><g transform="translate(10,-38) scale(1,1)"><path d="M 641 259 L 614 311" fill="none" stroke="#000000" stroke-dasharray="3" stroke-miterlimit="10"/></g><g transform="translate(10,-38) scale(1,1)"><path d="M 614.9471852713226 300.0408558700148 L 614 311 L 622.4190462587055 303.920475998079" fill="none" stroke="#000000" stroke-miterlimit="10"/></g><g transform="translate(10,-38) scale(1,1)"><g><path fill="none" stroke="none"/><text fill="#000000" font-family="Arial" font-size="13px" font-style="normal" font-weight="normal" stroke="none" text-decoration="none" x="625.5" y="304.5">«include»</text></g></g><g transform="translate(10,-38) scale(1,1)"><path d="M 89 449 L 527 347" fill="none" stroke="#000000" stroke-miterlimit="10"/></g><g transform="translate(10,-38) scale(1,1)"><path d="M 518.0569208484114 353.40479002688 L 527 347 L 516.1474176271408 345.2051585473065" fill="none" stroke="#000000" stroke-miterlimit="10"/></g><g transform="translate(10,-38) scale(1,1)"><path d="M 699 346 L 1239 444" fill="none" stroke="#000000" stroke-miterlimit="10"/></g><g transform="translate(10,-38) scale(1,1)"><path d="M 1228.248986531153 446.32716767609696 L 1239 444 L 1229.7523294268242 438.0434415162767" fill="none" stroke="#000000" stroke-miterlimit="10"/></g><g transform="translate(10,-38) scale(1,1)"><path d="M 471 416 C 471 406.6111584 549.7978752 399 647 399 C 744.2021248 399 823 406.6111584 823 416 C 823 425.3888416 744.2021248 433 647 433 C 549.7978752 433 471 425.3888416 471 416 Z" fill="#C0C0C0" opacity="0.2" stroke="none"/></g><g transform="translate(10,-38) scale(1,1)"><path d="M 464 409 C 464 399.6111584 542.7978752 392 640 392 C 737.2021248 392 816 399.6111584 816 409 C 816 418.3888416 737.2021248 426 640 426 C 542.7978752 426 464 418.3888416 464 409 Z" fill="#ffffff" stroke="none"/></g><g transform="translate(10,-38) scale(1,1)"><path d="M 464 409 C 464 399.6111584 542.7978752 392 640 392 C 737.2021248 392 816 399.6111584 816 409 C 816 418.3888416 737.2021248 426 640 426 C 542.7978752 426 464 418.3888416 464 409 Z" fill="none" stroke="#000000" stroke-miterlimit="10"/></g><g transform="translate(10,-38) scale(1,1)"><g><path fill="none" stroke="none"/><text fill="#000000" font-family="Arial" font-size="13px" font-style="normal" font-weight="bold" stroke="none" text-decoration="none" x="527.986083984375" y="416">Request to place order given the menu</text></g></g><g transform="translate(10,-38) scale(1,1)"><path d="M 463 417 L 288 424 L 89 453" fill="none" stroke="#000000" stroke-miterlimit="10"/></g><g transform="translate(10,-38) scale(1,1)"><path d="M 98.44941681411244 447.3689679566558 L 89 453 L 99.66348765044451 455.70000576458966" fill="none" stroke="#000000" stroke-miterlimit="10"/></g><g transform="translate(10,-38) scale(1,1)"><path d="M 527 472 C 527 462.6111584 568.413656 455 619.5 455 C 670.586344 455 712 462.6111584 712 472 C 712 481.3888416 670.586344 489 619.5 489 C 568.413656 489 527 481.3888416 527 472 Z" fill="#C0C0C0" opacity="0.2" stroke="none"/></g><g transform="translate(10,-38) scale(1,1)"><path d="M 520 465 C 520 455.6111584 561.413656 448 612.5 448 C 663.586344 448 705 455.6111584 705 465 C 705 474.3888416 663.586344 482 612.5 482 C 561.413656 482 520 474.3888416 520 465 Z" fill="#ffffff" stroke="none"/></g><g transform="translate(10,-38) scale(1,1)"><path d="M 520 465 C 520 455.6111584 561.413656 448 612.5 448 C 663.586344 448 705 455.6111584 705 465 C 705 474.3888416 663.586344 482 612.5 482 C 561.413656 482 520 474.3888416 520 465 Z" fill="none" stroke="#000000" stroke-miterlimit="10"/></g><g transform="translate(10,-38) scale(1,1)"><g><path fill="none" stroke="none"/><text fill="#000000" font-family="Arial" font-size="13px" font-style="normal" font-weight="bold" stroke="none" text-decoration="none" x="579.98095703125" y="472">place order</text></g></g><g transform="translate(10,-38) scale(1,1)"><path d="M 89 459 L 519 464" fill="none" stroke="#000000" stroke-miterlimit="10"/></g><g transform="translate(10,-38) scale(1,1)"><path d="M 263 624 C 263 614.6111584 287.4004784 607 317.5 607 C 347.5995216 607 372 614.6111584 372 624 C 372 633.3888416 347.5995216 641 317.5 641 C 287.4004784 641 263 633.3888416 263 624 Z" fill="#C0C0C0" opacity="0.2" stroke="none"/></g><g transform="translate(10,-38) scale(1,1)"><path d="M 256 617 C 256 607.6111584 280.4004784 600 310.5 600 C 340.5995216 600 365 607.6111584 365 617 C 365 626.3888416 340.5995216 634 310.5 634 C 280.4004784 634 256 626.3888416 256 617 Z" fill="#ffffff" stroke="none"/></g><g transform="translate(10,-38) scale(1,1)"><path d="M 256 617 C 256 607.6111584 280.4004784 600 310.5 600 C 340.5995216 600 365 607.6111584 365 617 C 365 626.3888416 340.5995216 634 310.5 634 C 280.4004784 634 256 626.3888416 256 617 Z" fill="none" stroke="#000000" stroke-miterlimit="10"/></g><g transform="translate(10,-38) scale(1,1)"><g><path fill="none" stroke="none"/><text fill="#000000" font-family="Arial" font-size="13px" font-style="normal" font-weight="bold" stroke="none" text-decoration="none" x="287.023193359375" y="624">Delivery</text></g></g><g transform="translate(10,-38) scale(1,1)"><path d="M 346 599 L 576 483" fill="none" stroke="#000000" stroke-dasharray="3" stroke-miterlimit="10"/></g><g transform="translate(10,-38) scale(1,1)"><path d="M 568.8216782611203 491.334968327062 L 576 483 L 565.0304473958587 483.81787264593993" fill="none" stroke="#000000" stroke-miterlimit="10"/></g><g transform="translate(10,-38) scale(1,1)"><g><path fill="none" stroke="none"/><text fill="#000000" font-family="Arial" font-size="13px" font-style="normal" font-weight="normal" stroke="none" text-decoration="none" x="400.5" y="532.5">«extend»</text></g></g><g transform="translate(10,-38) scale(1,1)"><path d="M 743 544 C 743 534.6111584 782.3989376 527 831 527 C 879.6010624 527 919 534.6111584 919 544 C 919 553.3888416 879.6010624 561 831 561 C 782.3989376 561 743 553.3888416 743 544 Z" fill="#C0C0C0" opacity="0.2" stroke="none"/></g><g transform="translate(10,-38) scale(1,1)"><path d="M 736 537 C 736 527.6111584 775.3989376 520 824 520 C 872.6010624 520 912 527.6111584 912 537 C 912 546.3888416 872.6010624 554 824 554 C 775.3989376 554 736 546.3888416 736 537 Z" fill="#ffffff" stroke="none"/></g><g transform="translate(10,-38) scale(1,1)"><path d="M 736 537 C 736 527.6111584 775.3989376 520 824 520 C 872.6010624 520 912 527.6111584 912 537 C 912 546.3888416 872.6010624 554 824 554 C 775.3989376 554 736 546.3888416 736 537 Z" fill="none" stroke="#000000" stroke-miterlimit="10"/></g><g transform="translate(10,-38) scale(1,1)"><g><path fill="none" stroke="none"/><text fill="#000000" font-family="Arial" font-size="13px" font-style="normal" font-weight="bold" stroke="none" text-decoration="none" x="770.52099609375" y="544">Special decoration</text></g></g><g transform="translate(10,-38) scale(1,1)"><path d="M 771 519 L 665 483" fill="none" stroke="#000000" stroke-dasharray="3" stroke-miterlimit="10"/></g><g transform="translate(10,-38) scale(1,1)"><path d="M 675.9765566486128 482.2822227784377 L 665 483 L 673.2691427810603 490.25405249956447" fill="none" stroke="#000000" stroke-miterlimit="10"/></g><g transform="translate(10,-38) scale(1,1)"><g><path fill="none" stroke="none"/><text fill="#000000" font-family="Arial" font-size="13px" font-style="normal" font-weight="normal" stroke="none" text-decoration="none" x="717.5" y="493.5">«extend»</text></g></g><g transform="translate(10,-38) scale(1,1)"><path d="M 706 463 L 1239 452" fill="none" stroke="#000000" stroke-miterlimit="10"/></g><g transform="translate(10,-38) scale(1,1)"><path d="M 583 880 C 583 870.6111584 658.8877264 863 752.5 863 C 846.1122736 863 922 870.6111584 922 880 C 922 889.3888416 846.1122736 897 752.5 897 C 658.8877264 897 583 889.3888416 583 880 Z" fill="#C0C0C0" opacity="0.2" stroke="none"/></g><g transform="translate(10,-38) scale(1,1)"><path d="M 576 873 C 576 863.6111584 651.8877264 856 745.5 856 C 839.1122736 856 915 863.6111584 915 873 C 915 882.3888416 839.1122736 890 745.5 890 C 651.8877264 890 576 882.3888416 576 873 Z" fill="#ffffff" stroke="none"/></g><g transform="translate(10,-38) scale(1,1)"><path d="M 576 873 C 576 863.6111584 651.8877264 856 745.5 856 C 839.1122736 856 915 863.6111584 915 873 C 915 882.3888416 839.1122736 890 745.5 890 C 651.8877264 890 576 882.3888416 576 873 Z" fill="none" stroke="#000000" stroke-miterlimit="10"/></g><g transform="translate(10,-38) scale(1,1)"><g><path fill="none" stroke="none"/><text fill="#000000" font-family="Arial" font-size="13px" font-style="normal" font-weight="bold" stroke="none" text-decoration="none" x="638.19287109375" y="880">Request address and time of delivery</text></g></g><g transform="translate(10,-38) scale(1,1)"><path d="M 341 635 L 714 855" fill="none" stroke="#000000" stroke-dasharray="3" stroke-miterlimit="10"/></g><g transform="translate(10,-38) scale(1,1)"><path d="M 703.107924810885 853.4628929527628 L 714 855 L 707.385038589094 846.2112409560721" fill="none" stroke="#000000" stroke-miterlimit="10"/></g><g transform="translate(10,-38) scale(1,1)"><g><path fill="none" stroke="none"/><text fill="#000000" font-family="Arial" font-size="13px" font-style="normal" font-weight="normal" stroke="none" text-decoration="none" x="495.5" y="731.5">«include»</text></g></g><g transform="translate(10,-38) scale(1,1)"><path d="M 711 664 C 711 654.6111584 766.9644 647 836 647 C 905.0356 647 961 654.6111584 961 664 C 961 673.3888416 905.0356 681 836 681 C 766.9644 681 711 673.3888416 711 664 Z" fill="#C0C0C0" opacity="0.2" stroke="none"/></g><g transform="translate(10,-38) scale(1,1)"><path d="M 704 657 C 704 647.6111584 759.9644 640 829 640 C 898.0356 640 954 647.6111584 954 657 C 954 666.3888416 898.0356 674 829 674 C 759.9644 674 704 666.3888416 704 657 Z" fill="#ffffff" stroke="none"/></g><g transform="translate(10,-38) scale(1,1)"><path d="M 704 657 C 704 647.6111584 759.9644 640 829 640 C 898.0356 640 954 647.6111584 954 657 C 954 666.3888416 898.0356 674 829 674 C 759.9644 674 704 666.3888416 704 657 Z" fill="none" stroke="#000000" stroke-miterlimit="10"/></g><g transform="translate(10,-38) scale(1,1)"><g><path fill="none" stroke="none"/><text fill="#000000" font-family="Arial" font-size="13px" font-style="normal" font-weight="bold" stroke="none" text-decoration="none" x="751.31103515625" y="664">Request type of decoration</text></g></g><g transform="translate(10,-38) scale(1,1)"><path d="M 825 555 L 828 639" fill="none" stroke="#000000" stroke-dasharray="3" stroke-miterlimit="10"/></g><g transform="translate(10,-38) scale(1,1)"><path d="M 823.4304429001526 628.9940443779101 L 828 639 L 831.8441142603102 628.6935561150473" fill="none" stroke="#000000" stroke-miterlimit="10"/></g><g transform="translate(10,-38) scale(1,1)"><g><path fill="none" stroke="none"/><text fill="#000000" font-family="Arial" font-size="13px" font-style="normal" font-weight="normal" stroke="none" text-decoration="none" x="830.5" y="604.5">«include»</text></g></g><g transform="translate(10,-38) scale(1,1)"><path d="M 519 1096 C 519 1086.6111584 597.5740175999999 1079 694.5 1079 C 791.4259824000001 1079 870 1086.6111584 870 1096 C 870 1105.3888416 791.4259824000001 1113 694.5 1113 C 597.5740175999999 1113 519 1105.3888416 519 1096 Z" fill="#C0C0C0" opacity="0.2" stroke="none"/></g><g transform="translate(10,-38) scale(1,1)"><path d="M 512 1089 C 512 1079.6111584 590.5740175999999 1072 687.5 1072 C 784.4259824000001 1072 863 1079.6111584 863 1089 C 863 1098.3888416 784.4259824000001 1106 687.5 1106 C 590.5740175999999 1106 512 1098.3888416 512 1089 Z" fill="#ffffff" stroke="none"/></g><g transform="translate(10,-38) scale(1,1)"><path d="M 512 1089 C 512 1079.6111584 590.5740175999999 1072 687.5 1072 C 784.4259824000001 1072 863 1079.6111584 863 1089 C 863 1098.3888416 784.4259824000001 1106 687.5 1106 C 590.5740175999999 1106 512 1098.3888416 512 1089 Z" fill="none" stroke="#000000" stroke-miterlimit="10"/></g><g transform="translate(10,-38) scale(1,1)"><g><path fill="none" stroke="none"/><text fill="#000000" font-family="Arial" font-size="13px" font-style="normal" font-weight="bold" stroke="none" text-decoration="none" x="641.61279296875" y="1096">Generate report</text></g></g><g transform="translate(10,-38) scale(1,1)"><path d="M 34.95349485085227 743.29 C 34.95349485085227 735.3978502079999 41.214018596597725 729 48.936767578125 729 C 56.659516559652275 729 62.92004030539773 735.3978502079999 62.92004030539773 743.29 C 62.92004030539773 751.182149792 56.659516559652275 757.58 48.936767578125 757.58 C 41.214018596597725 757.58 34.95349485085227 751.182149792 34.95349485085227 743.29 Z" fill="#ffffff" stroke="none"/></g><g transform="translate(10,-38) scale(1,1)"><path d="M 34.95349485085227 743.29 C 34.95349485085227 735.3978502079999 41.214018596597725 729 48.936767578125 729 C 56.659516559652275 729 62.92004030539773 735.3978502079999 62.92004030539773 743.29 C 62.92004030539773 751.182149792 56.659516559652275 757.58 48.936767578125 757.58 C 41.214018596597725 757.58 34.95349485085227 751.182149792 34.95349485085227 743.29 Z" fill="none" stroke="#000000" stroke-miterlimit="10"/></g><g transform="translate(10,-38) scale(1,1)"><path d="M 48.936767578125 757.58 L 48.936767578125 785.42" fill="none" stroke="#000000" stroke-miterlimit="10"/></g><g transform="translate(10,-38) scale(1,1)"><path d="M 34.13094939630682 768.02 L 63.74258575994318 768.02" fill="none" stroke="#000000" stroke-miterlimit="10"/></g><g transform="translate(10,-38) scale(1,1)"><path d="M 48.936767578125 785.42 L 28.373131214488637 814" fill="none" stroke="#000000" stroke-miterlimit="10"/></g><g transform="translate(10,-38) scale(1,1)"><path d="M 48.936767578125 785.42 L 69.50040394176136 814" fill="none" stroke="#000000" stroke-miterlimit="10"/></g><g transform="translate(10,-38) scale(1,1)"><g><path fill="none" stroke="none"/><text fill="#000000" font-family="Arial" font-size="13px" font-style="normal" font-weight="bold" stroke="none" text-decoration="none" x="7.38818359375" y="834.5">Delivery agent</text></g></g><g transform="translate(10,-38) scale(1,1)"><path d="M 559 160 C 559 150.6111584 610.9349632 143 675 143 C 739.0650368 143 791 150.6111584 791 160 C 791 169.3888416 739.0650368 177 675 177 C 610.9349632 177 559 169.3888416 559 160 Z" fill="#C0C0C0" opacity="0.2" stroke="none"/></g><g transform="translate(10,-38) scale(1,1)"><path d="M 552 153 C 552 143.6111584 603.9349632 136 668 136 C 732.0650368 136 784 143.6111584 784 153 C 784 162.3888416 732.0650368 170 668 170 C 603.9349632 170 552 162.3888416 552 153 Z" fill="#ffffff" stroke="none"/></g><g transform="translate(10,-38) scale(1,1)"><path d="M 552 153 C 552 143.6111584 603.9349632 136 668 136 C 732.0650368 136 784 143.6111584 784 153 C 784 162.3888416 732.0650368 170 668 170 C 603.9349632 170 552 162.3888416 552 153 Z" fill="none" stroke="#000000" stroke-miterlimit="10"/></g><g transform="translate(10,-38) scale(1,1)"><g><path fill="none" stroke="none"/><text fill="#000000" font-family="Arial" font-size="13px" font-style="normal" font-weight="bold" stroke="none" text-decoration="none" x="627.8955078125" y="160">Provide Menu</text></g></g><g transform="translate(10,-38) scale(1,1)"><path d="M 631 171 L 89 437" fill="none" stroke="#000000" stroke-miterlimit="10"/></g><g transform="translate(10,-38) scale(1,1)"><path d="M 1239 431 L 705 171" fill="none" stroke="#000000" stroke-miterlimit="10"/></g><g transform="translate(10,-38) scale(1,1)"><path d="M 715.9799367375938 171.6640702059549 L 705 171 L 712.2944191783372 179.23355626996658" fill="none" stroke="#000000" stroke-miterlimit="10"/></g><g transform="translate(10,-38) scale(1,1)"><path d="M 415 600 C 415 590.6111584 444.5492032 583 481 583 C 517.4507968 583 547 590.6111584 547 600 C 547 609.3888416 517.4507968 617 481 617 C 444.5492032 617 415 609.3888416 415 600 Z" fill="#C0C0C0" opacity="0.2" stroke="none"/></g><g transform="translate(10,-38) scale(1,1)"><path d="M 408 593 C 408 583.6111584 437.5492032 576 474 576 C 510.4507968 576 540 583.6111584 540 593 C 540 602.3888416 510.4507968 610 474 610 C 437.5492032 610 408 602.3888416 408 593 Z" fill="#ffffff" stroke="none"/></g><g transform="translate(10,-38) scale(1,1)"><path d="M 408 593 C 408 583.6111584 437.5492032 576 474 576 C 510.4507968 576 540 583.6111584 540 593 C 540 602.3888416 510.4507968 610 474 610 C 437.5492032 610 408 602.3888416 408 593 Z" fill="none" stroke="#000000" stroke-miterlimit="10"/></g><g transform="translate(10,-38) scale(1,1)"><g><path fill="none" stroke="none"/><text fill="#000000" font-family="Arial" font-size="13px" font-style="normal" font-weight="bold" stroke="none" text-decoration="none" x="434.254150390625" y="600">Cupcake type</text></g></g><g transform="translate(10,-38) scale(1,1)"><path d="M 593 483 L 493 575" fill="none" stroke="#000000" stroke-dasharray="3" stroke-miterlimit="10"/></g><g transform="translate(10,-38) scale(1,1)"><path d="M 497.6289461018608 565.0213799558221 L 493 575 L 503.3291090784949 571.2172092782506" fill="none" stroke="#000000" stroke-miterlimit="10"/></g><g transform="translate(10,-38) scale(1,1)"><g><path fill="none" stroke="none"/><text fill="#000000" font-family="Arial" font-size="13px" font-style="normal" font-weight="normal" stroke="none" text-decoration="none" x="527.5" y="555.5">«include»</text></g></g><g transform="translate(10,-38) scale(1,1)"><path d="M 575 600 C 575 590.6111584 597.6096176 583 625.5 583 C 653.3903824 583 676 590.6111584 676 600 C 676 609.3888416 653.3903824 617 625.5 617 C 597.6096176 617 575 609.3888416 575 600 Z" fill="#C0C0C0" opacity="0.2" stroke="none"/></g><g transform="translate(10,-38) scale(1,1)"><path d="M 568 593 C 568 583.6111584 590.6096176 576 618.5 576 C 646.3903824 576 669 583.6111584 669 593 C 669 602.3888416 646.3903824 610 618.5 610 C 590.6096176 610 568 602.3888416 568 593 Z" fill="#ffffff" stroke="none"/></g><g transform="translate(10,-38) scale(1,1)"><path d="M 568 593 C 568 583.6111584 590.6096176 576 618.5 576 C 646.3903824 576 669 583.6111584 669 593 C 669 602.3888416 646.3903824 610 618.5 610 C 590.6096176 610 568 602.3888416 568 593 Z" fill="none" stroke="#000000" stroke-miterlimit="10"/></g><g transform="translate(10,-38) scale(1,1)"><g><path fill="none" stroke="none"/><text fill="#000000" font-family="Arial" font-size="13px" font-style="normal" font-weight="bold" stroke="none" text-decoration="none" x="590.67822265625" y="600">Icing type</text></g></g><g transform="translate(10,-38) scale(1,1)"><path d="M 613 483 L 617 575" fill="none" stroke="#000000" stroke-dasharray="3" stroke-miterlimit="10"/></g><g transform="translate(10,-38) scale(1,1)"><path d="M 612.3530169751094 565.0297668649936 L 617 575 L 620.764106250815 564.6640673312673" fill="none" stroke="#000000" stroke-miterlimit="10"/></g><g transform="translate(10,-38) scale(1,1)"><g><path fill="none" stroke="none"/><text fill="#000000" font-family="Arial" font-size="13px" font-style="normal" font-weight="normal" stroke="none" text-decoration="none" x="616.5" y="533.5">«include»</text></g></g><g transform="translate(10,-38) scale(1,1)"><path d="M 431 664 C 431 654.6111584 457.6390544 647 490.5 647 C 523.3609456 647 550 654.6111584 550 664 C 550 673.3888416 523.3609456 681 490.5 681 C 457.6390544 681 431 673.3888416 431 664 Z" fill="#C0C0C0" opacity="0.2" stroke="none"/></g><g transform="translate(10,-38) scale(1,1)"><path d="M 424 657 C 424 647.6111584 450.6390544 640 483.5 640 C 516.3609456 640 543 647.6111584 543 657 C 543 666.3888416 516.3609456 674 483.5 674 C 450.6390544 674 424 666.3888416 424 657 Z" fill="#ffffff" stroke="none"/></g><g transform="translate(10,-38) scale(1,1)"><path d="M 424 657 C 424 647.6111584 450.6390544 640 483.5 640 C 516.3609456 640 543 647.6111584 543 657 C 543 666.3888416 516.3609456 674 483.5 674 C 450.6390544 674 424 666.3888416 424 657 Z" fill="none" stroke="#000000" stroke-miterlimit="10"/></g><g transform="translate(10,-38) scale(1,1)"><g><path fill="none" stroke="none"/><text fill="#000000" font-family="Arial" font-size="13px" font-style="normal" font-weight="bold" stroke="none" text-decoration="none" x="449.8955078125" y="664">color option</text></g></g><g transform="translate(10,-38) scale(1,1)"><path d="M 480 639 L 477 611" fill="none" stroke="#000000" stroke-dasharray="3" stroke-miterlimit="10"/></g><g transform="translate(10,-38) scale(1,1)"><path d="M 482.2682235354568 620.6563875637041 L 477 611 L 473.89709945866747 621.5532937147887" fill="none" stroke="#000000" stroke-miterlimit="10"/></g><g transform="translate(10,-38) scale(1,1)"><g><path fill="none" stroke="none"/><text fill="#000000" font-family="Arial" font-size="13px" font-style="normal" font-weight="normal" stroke="none" text-decoration="none" x="421.5" y="633.5">«extend»</text></g></g><g transform="translate(10,-38) scale(1,1)"><path d="M 567 680 C 567 670.6111584 593.6390544 663 626.5 663 C 659.3609456 663 686 670.6111584 686 680 C 686 689.3888416 659.3609456 697 626.5 697 C 593.6390544 697 567 689.3888416 567 680 Z" fill="#C0C0C0" opacity="0.2" stroke="none"/></g><g transform="translate(10,-38) scale(1,1)"><path d="M 560 673 C 560 663.6111584 586.6390544 656 619.5 656 C 652.3609456 656 679 663.6111584 679 673 C 679 682.3888416 652.3609456 690 619.5 690 C 586.6390544 690 560 682.3888416 560 673 Z" fill="#ffffff" stroke="none"/></g><g transform="translate(10,-38) scale(1,1)"><path d="M 560 673 C 560 663.6111584 586.6390544 656 619.5 656 C 652.3609456 656 679 663.6111584 679 673 C 679 682.3888416 652.3609456 690 619.5 690 C 586.6390544 690 560 682.3888416 560 673 Z" fill="none" stroke="#000000" stroke-miterlimit="10"/></g><g transform="translate(10,-38) scale(1,1)"><g><path fill="none" stroke="none"/><text fill="#000000" font-family="Arial" font-size="13px" font-style="normal" font-weight="bold" stroke="none" text-decoration="none" x="585.8955078125" y="680">color option</text></g></g><g transform="translate(10,-38) scale(1,1)"><path d="M 619 655 L 618 611" fill="none" stroke="#000000" stroke-dasharray="3" stroke-miterlimit="10"/></g><g transform="translate(10,-38) scale(1,1)"><path d="M 622.4393412630723 621.0644050569313 L 618 611 L 614.0224792467553 621.2556973754839" fill="none" stroke="#000000" stroke-miterlimit="10"/></g><g transform="translate(10,-38) scale(1,1)"><g><path fill="none" stroke="none"/><text fill="#000000" font-family="Arial" font-size="13px" font-style="normal" font-weight="normal" stroke="none" text-decoration="none" x="561.5" y="638.5">«extend»</text></g></g><g transform="translate(10,-38) scale(1,1)"><path d="M 664 171 L 654 223" fill="none" stroke="#000000" stroke-dasharray="3" stroke-miterlimit="10"/></g><g transform="translate(10,-38) scale(1,1)"><path d="M 651.7854210842887 212.22523131449742 L 654 223 L 660.0529682344632 213.81514422799248" fill="none" stroke="#000000" stroke-miterlimit="10"/></g><g transform="translate(10,-38) scale(1,1)"><g><path fill="none" stroke="none"/><text fill="#000000" font-family="Arial" font-size="13px" font-style="normal" font-weight="normal" stroke="none" text-decoration="none" x="661.5" y="208.5">«extend»</text></g></g><g transform="translate(10,-38) scale(1,1)"><path d="M 1239 448 L 817 421" fill="none" stroke="#000000" stroke-miterlimit="10"/></g><g transform="translate(10,-38) scale(1,1)"><path d="M 827.4107174350393 417.4479636139577 L 817 421 L 826.8731579109252 425.84981987974146" fill="none" stroke="#000000" stroke-miterlimit="10"/></g><g transform="translate(10,-38) scale(1,1)"><path d="M 215 936 C 215 926.6111584 264.6963872 919 326 919 C 387.3036128 919 437 926.6111584 437 936 C 437 945.3888416 387.3036128 953 326 953 C 264.6963872 953 215 945.3888416 215 936 Z" fill="#C0C0C0" opacity="0.2" stroke="none"/></g><g transform="translate(10,-38) scale(1,1)"><path d="M 208 929 C 208 919.6111584 257.6963872 912 319 912 C 380.3036128 912 430 919.6111584 430 929 C 430 938.3888416 380.3036128 946 319 946 C 257.6963872 946 208 938.3888416 208 929 Z" fill="#ffffff" stroke="none"/></g><g transform="translate(10,-38) scale(1,1)"><path d="M 208 929 C 208 919.6111584 257.6963872 912 319 912 C 380.3036128 912 430 919.6111584 430 929 C 430 938.3888416 380.3036128 946 319 946 C 257.6963872 946 208 938.3888416 208 929 Z" fill="none" stroke="#000000" stroke-miterlimit="10"/></g><g transform="translate(10,-38) scale(1,1)"><g><path fill="none" stroke="none"/><text fill="#000000" font-family="Arial" font-size="13px" font-style="normal" font-weight="bold" stroke="none" text-decoration="none" x="250.35009765625" y="936">generate delivery report</text></g></g><g transform="translate(10,-38) scale(1,1)"><path d="M 311 635 L 318 911" fill="none" stroke="#000000" stroke-dasharray="3" stroke-miterlimit="10"/></g><g transform="translate(10,-38) scale(1,1)"><path d="M 313.5341693296445 900.9473209330193 L 318 911 L 321.95049838671486 900.7338633120066" fill="none" stroke="#000000" stroke-miterlimit="10"/></g><g transform="translate(10,-38) scale(1,1)"><g><path fill="none" stroke="none"/><text fill="#000000" font-family="Arial" font-size="13px" font-style="normal" font-weight="normal" stroke="none" text-decoration="none" x="315.5" y="778.5">«include»</text></g></g><g transform="translate(10,-38) scale(1,1)"><path d="M 285 911 L 99 811" fill="none" stroke="#000000" stroke-miterlimit="10"/></g><g transform="translate(10,-38) scale(1,1)"><path d="M 109.94438400786984 812.1047437206352 L 99 811 L 105.95767637153996 819.5200199242088" fill="none" stroke="#000000" stroke-miterlimit="10"/></g><g transform="translate(10,-38) scale(1,1)"><path d="M 335 880 C 335 870.6111584 385.36796 863 447.5 863 C 509.63204 863 560 870.6111584 560 880 C 560 889.3888416 509.63204 897 447.5 897 C 385.36796 897 335 889.3888416 335 880 Z" fill="#C0C0C0" opacity="0.2" stroke="none"/></g><g transform="translate(10,-38) scale(1,1)"><path d="M 328 873 C 328 863.6111584 378.36796 856 440.5 856 C 502.63204 856 553 863.6111584 553 873 C 553 882.3888416 502.63204 890 440.5 890 C 378.36796 890 328 882.3888416 328 873 Z" fill="#ffffff" stroke="none"/></g><g transform="translate(10,-38) scale(1,1)"><path d="M 328 873 C 328 863.6111584 378.36796 856 440.5 856 C 502.63204 856 553 863.6111584 553 873 C 553 882.3888416 502.63204 890 440.5 890 C 378.36796 890 328 882.3888416 328 873 Z" fill="none" stroke="#000000" stroke-miterlimit="10"/></g><g transform="translate(10,-38) scale(1,1)"><g><path fill="none" stroke="none"/><text fill="#000000" font-family="Arial" font-size="13px" font-style="normal" font-weight="bold" stroke="none" text-decoration="none" x="371.1201171875" y="880">Location related queries</text></g></g><g transform="translate(10,-38) scale(1,1)"><path d="M 319 635 L 431 855" fill="none" stroke="#000000" stroke-dasharray="3" stroke-miterlimit="10"/></g><g transform="translate(10,-38) scale(1,1)"><path d="M 422.637999810623 847.8531858263377 L 431 855 L 430.14073372788505 844.0336121957316" fill="none" stroke="#000000" stroke-miterlimit="10"/></g><g transform="translate(10,-38) scale(1,1)"><g><path fill="none" stroke="none"/><text fill="#000000" font-family="Arial" font-size="13px" font-style="normal" font-weight="normal" stroke="none" text-decoration="none" x="373.5" y="737.5">«include»</text></g></g><g transform="translate(10,-38) scale(1,1)"><path d="M 397 855 L 72 720 L 51 520" fill="none" stroke="#000000" stroke-miterlimit="10"/></g><g transform="translate(10,-38) scale(1,1)"><path d="M 56.24774969276707 529.6675293204656 L 51 520 L 47.87474385390418 530.5466949335463" fill="none" stroke="#000000" stroke-miterlimit="10"/></g><g transform="translate(10,-38) scale(1,1)"><path d="M 1244 512 L 1048 840 L 713 1071" fill="none" stroke="#000000" stroke-miterlimit="10"/></g><g transform="translate(10,-38) scale(1,1)"><path d="M 718.9768061376338 1061.7654026404427 L 713 1071 L 723.7560865642287 1068.696393735288" fill="none" stroke="#000000" stroke-miterlimit="10"/></g><g transform="translate(10,-38) scale(1,1)"><path d="M 584 1071 L 176 1000 L 59 520" fill="none" stroke="#000000" stroke-miterlimit="10"/></g><g transform="translate(10,-38) scale(1,1)"><path d="M 65.49646357418173 528.8767089075474 L 59 520 L 57.31691238388956 530.870474510181" fill="none" stroke="#000000" stroke-miterlimit="10"/></g></g></svg>